<?xml version="1.0" encoding="utf-8"?>
<!-- Generator: Adobe Illustrator 25.4.1, SVG Export Plug-In . SVG Version: 6.00 Build 0)  -->
<svg version="1.1" id="Layer_1" xmlns="http://www.w3.org/2000/svg" xmlns:xlink="http://www.w3.org/1999/xlink" x="0px" y="0px"
	 viewBox="0 0 100 100" style="enable-background:new 0 0 100 100;" xml:space="preserve">
<style type="text/css">
	.st0{fill:none;stroke:#F5F4ED;stroke-width:0.611;stroke-miterlimit:10;}
	.st1{fill:#F2EFDD;}
</style>
<g>
	<circle class="st0" cx="50" cy="50" r="48.9"/>
	<g>
		<path class="st1" d="M43.4,1.4c0.3,0,0.6-0.1,0.9-0.1C44,1.4,43.7,1.4,43.4,1.4z"/>
		<path class="st1" d="M45.8,1.2c0.2,0,0.5,0,0.7-0.1C46.3,1.1,46.1,1.2,45.8,1.2z"/>
		<path class="st1" d="M42.3,1.6c0.3,0,0.6-0.1,0.9-0.1C42.9,1.5,42.6,1.6,42.3,1.6z"/>
		<path class="st1" d="M47.1,1.1c0.2,0,0.4,0,0.6,0C47.5,1.1,47.3,1.1,47.1,1.1z"/>
		<path class="st1" d="M41.1,97.9c22.7-4.2,39.9-24.1,39.9-48.1S63.9,6,41.1,1.8c0.3-0.1,0.7-0.1,1-0.2C18.9,5.4,1.2,25.6,1.2,49.9
			s17.7,44.4,40.9,48.2C41.8,98,41.5,98,41.1,97.9z"/>
		<path class="st1" d="M48.4,1c0.2,0,0.3,0,0.5,0C48.7,1,48.6,1,48.4,1z"/>
		<path class="st1" d="M44.6,1.3c0.3,0,0.5-0.1,0.8-0.1C45.2,1.2,44.9,1.3,44.6,1.3z"/>
		<path class="st1" d="M43.2,98.3c-0.3,0-0.6-0.1-0.9-0.1C42.6,98.2,42.9,98.2,43.2,98.3z"/>
		<path class="st1" d="M48.9,98.7c-0.2,0-0.3,0-0.5,0C48.6,98.7,48.7,98.7,48.9,98.7z"/>
		<path class="st1" d="M46.6,98.6c-0.2,0-0.5,0-0.7-0.1C46.1,98.6,46.3,98.6,46.6,98.6z"/>
		<path class="st1" d="M47.7,98.7c-0.2,0-0.4,0-0.6,0C47.3,98.7,47.5,98.7,47.7,98.7z"/>
		<path class="st1" d="M44.3,98.4c-0.3,0-0.6-0.1-0.9-0.1C43.7,98.3,44,98.4,44.3,98.4z"/>
		<path class="st1" d="M45.4,98.5c-0.3,0-0.5-0.1-0.8-0.1C44.9,98.5,45.2,98.5,45.4,98.5z"/>
	</g>
</g>
</svg>
