<?xml version="1.0" encoding="utf-8"?>
<!-- Generator: Adobe Illustrator 25.4.1, SVG Export Plug-In . SVG Version: 6.00 Build 0)  -->
<svg version="1.1" id="Layer_1" xmlns="http://www.w3.org/2000/svg" xmlns:xlink="http://www.w3.org/1999/xlink" x="0px" y="0px"
	 viewBox="0 0 100 100" style="enable-background:new 0 0 100 100;" xml:space="preserve">
<style type="text/css">
	.st0{fill:none;stroke:#F5F4ED;stroke-width:0.5885;stroke-miterlimit:10;}
	.st1{fill:#F2EFDD;}
</style>
<g>
	<circle class="st0" cx="50" cy="49.2" r="47.1"/>
	<g>
		<path class="st1" d="M43.7,2.4c0.3,0,0.5-0.1,0.8-0.1C44.2,2.4,44,2.4,43.7,2.4z"/>
		<path class="st1" d="M46,2.2c0.2,0,0.5,0,0.7-0.1C46.5,2.1,46.2,2.1,46,2.2z"/>
		<path class="st1" d="M42.6,2.6c0.3,0,0.6-0.1,0.9-0.1C43.2,2.5,42.9,2.5,42.6,2.6z"/>
		<path class="st1" d="M47.2,2.1c0.2,0,0.4,0,0.6,0C47.6,2.1,47.4,2.1,47.2,2.1z"/>
		<path class="st1" d="M41.5,95.4c21.9-4.1,38.4-23.2,38.4-46.3S63.3,6.8,41.5,2.8c0.3-0.1,0.6-0.1,1-0.2C20.1,6.3,3,25.7,3,49.1
			s17.1,42.8,39.4,46.5C42.1,95.5,41.8,95.4,41.5,95.4z"/>
		<path class="st1" d="M48.5,2c0.2,0,0.3,0,0.5,0C48.8,2,48.6,2,48.5,2z"/>
		<path class="st1" d="M44.8,2.3c0.3,0,0.5-0.1,0.8-0.1C45.3,2.2,45.1,2.3,44.8,2.3z"/>
		<path class="st1" d="M43.5,95.7c-0.3,0-0.6-0.1-0.9-0.1C42.9,95.6,43.2,95.6,43.5,95.7z"/>
		<path class="st1" d="M48.9,96.1c-0.2,0-0.3,0-0.5,0C48.6,96.1,48.8,96.1,48.9,96.1z"/>
		<path class="st1" d="M46.7,96c-0.2,0-0.5,0-0.7-0.1C46.2,96,46.5,96,46.7,96z"/>
		<path class="st1" d="M47.8,96.1c-0.2,0-0.4,0-0.6,0C47.4,96.1,47.6,96.1,47.8,96.1z"/>
		<path class="st1" d="M44.5,95.8c-0.3,0-0.5-0.1-0.8-0.1C44,95.7,44.2,95.8,44.5,95.8z"/>
		<path class="st1" d="M45.6,95.9c-0.3,0-0.5-0.1-0.8-0.1C45.1,95.9,45.3,95.9,45.6,95.9z"/>
	</g>
</g>
</svg>
