<?xml version="1.0" encoding="utf-8"?>
<!-- Generator: Adobe Illustrator 25.4.1, SVG Export Plug-In . SVG Version: 6.00 Build 0)  -->
<svg version="1.1" id="Layer_1" xmlns="http://www.w3.org/2000/svg" xmlns:xlink="http://www.w3.org/1999/xlink" x="0px" y="0px"
	 viewBox="0 0 100 100" style="enable-background:new 0 0 100 100;" xml:space="preserve">
<style type="text/css">
	.st0{fill-rule:evenodd;clip-rule:evenodd;fill:#FFFFFF;}
</style>
<path class="st0" d="M50,62c-6.6,0-12-5.4-12-12s5.4-12,12-12c0.8,0,1.5,0.1,2.2,0.2C52.1,38.8,52,39.4,52,40c0,4.4,3.6,8,8,8
	c0.6,0,1.2-0.1,1.8-0.2c0.1,0.7,0.2,1.5,0.2,2.2C62,56.6,56.6,62,50,62z M48.2,42.2C44.7,43,42,46.2,42,50c0,4.4,3.6,8,8,8
	c3.8,0,7-2.7,7.8-6.2C52.9,50.9,49.1,47.1,48.2,42.2z"/>
</svg>
