<?xml version="1.0" encoding="utf-8"?>
<!-- Generator: Adobe Illustrator 25.4.1, SVG Export Plug-In . SVG Version: 6.00 Build 0)  -->
<svg version="1.1" id="Layer_1" xmlns="http://www.w3.org/2000/svg" xmlns:xlink="http://www.w3.org/1999/xlink" x="0px" y="0px"
	 viewBox="0 0 25.6 25.6" style="enable-background:new 0 0 25.6 25.6;" xml:space="preserve">
<style type="text/css">
	.st0{fill:none;stroke:#F5F4ED;stroke-width:0.1533;stroke-miterlimit:10;}
	.st1{fill:#F2EFDD;}
</style>
<g>
	<circle class="st0" cx="12.8" cy="12.7" r="12.3"/>
	<g>
		<path class="st1" d="M14.4,24.9c-0.1,0-0.1,0-0.2,0C14.3,24.9,14.4,24.9,14.4,24.9z"/>
		<path class="st1" d="M13.8,25c-0.1,0-0.1,0-0.2,0C13.7,25,13.8,25,13.8,25z"/>
		<path class="st1" d="M14.7,24.9c-0.1,0-0.2,0-0.2,0C14.6,24.9,14.7,24.9,14.7,24.9z"/>
		<path class="st1" d="M13.5,25c-0.1,0-0.1,0-0.2,0C13.4,25,13.5,25,13.5,25z"/>
		<path class="st1" d="M15,0.7C9.3,1.8,5,6.8,5,12.8s4.3,11,10,12.1c-0.1,0-0.2,0-0.3,0c5.8-1,10.3-6,10.3-12.1S20.6,1.6,14.8,0.7
			C14.9,0.7,14.9,0.7,15,0.7z"/>
		<path class="st1" d="M13.2,25c0,0-0.1,0-0.1,0C13.1,25,13.2,25,13.2,25z"/>
		<path class="st1" d="M14.1,25c-0.1,0-0.1,0-0.2,0C14,25,14.1,25,14.1,25z"/>
		<path class="st1" d="M14.5,0.6c0.1,0,0.2,0,0.2,0C14.7,0.7,14.6,0.6,14.5,0.6z"/>
		<path class="st1" d="M13.1,0.5c0,0,0.1,0,0.1,0C13.2,0.5,13.1,0.5,13.1,0.5z"/>
		<path class="st1" d="M13.7,0.5c0.1,0,0.1,0,0.2,0C13.8,0.5,13.7,0.5,13.7,0.5z"/>
		<path class="st1" d="M13.4,0.5c0.1,0,0.1,0,0.2,0C13.5,0.5,13.4,0.5,13.4,0.5z"/>
		<path class="st1" d="M14.2,0.6c0.1,0,0.1,0,0.2,0C14.4,0.6,14.3,0.6,14.2,0.6z"/>
		<path class="st1" d="M13.9,0.6c0.1,0,0.1,0,0.2,0C14.1,0.6,14,0.6,13.9,0.6z"/>
	</g>
</g>
</svg>
