<?xml version="1.0" encoding="utf-8"?>
<!-- Generator: Adobe Illustrator 25.4.1, SVG Export Plug-In . SVG Version: 6.00 Build 0)  -->
<svg version="1.0" id="Layer_1" xmlns="http://www.w3.org/2000/svg" xmlns:xlink="http://www.w3.org/1999/xlink" x="0px" y="0px"
	 viewBox="0 0 279.3 303.5" style="enable-background:new 0 0 279.3 303.5;" xml:space="preserve">
<style type="text/css">
	.st0{enable-background:new    ;}
	.st1{fill:none;stroke:#C39642;}
	.st2{fill:#FFFFFF;}
	.st3{fill:#C39642;}
</style>
<g id="Layer_2_00000164477639093055613590000014808178724120576447_">
	<g id="Layer_1-2">
		<g id="Logo">
			<g id="Wicked_Weather">
				<g class="st0">
					<path class="st1" d="M77.1,21.3c0,3.6-3,9.7-3,23.7c0,5.2,0.5,6.1,0.5,8.1c0,3.8-1.8,8.7-1.8,12.7c0,2.8,1.5,5.9,1.5,7.2
						c0,1.9-0.5,2.5-1.6,2.5c-0.9,0-1.4-0.6-1.4-1.7s0.3-2.3,0.3-3.4c0-2.1-0.9-3.1-2.1-3.1c-1.7,0-2.1,1.1-2.1,3.2
						c0,1.9,1.8,3.8,1.8,5.3c0,2-1.7,0.7-2.3,7.4c-0.1,1.1-1.7,4.7-1.7,7c0,1.7,1.5,5.4,1.5,7.3c0,5-0.3,7-2,7
						c-1.2,0-2.5-1.2-2.5-3.5c0-1.9,0.7-5.2,0.7-7.6c0-1.9-0.5-3.3-2.6-3.3c-1.7,0-0.5,5.3-3.1,5.3c-1.6,0-2.3-3.1-2.3-6.6
						c0-2.6,0.3-5.5,0.3-6.7c0-4-0.4-5.3-1.5-5.3c-0.5,0-1.7,1-2.2,1s-0.8-0.7-0.8-2c0-3,0.9-6,0.9-9.5c0-1.7-0.4-2.8-0.4-7.7
						c0-3.2-0.4-4.8-1.7-4.8c-3,0-3.1,5.3-3.1,8.8c0,3.3,0.2,4.4,0.2,6.2c0,2.7-1.2,9-1.2,11.6c0,3.2,1.9,6.1,1.9,8.1
						c0,4.2-0.7,5.6-2.7,5.6c-1.4,0-2.4-3.7-4-3.7c-1.1,0-1.7,0.5-1.7,1.6c0,1.4,0.9,3.7,0.9,5.8c0,1.7-0.5,2.4-1.1,2.4
						c-1.8,0-0.4-10.5-3.7-10.6c-0.8,0-2.3,1.5-3.6,1.5c-0.8,0-1.4-0.4-1.4-1.2c0-1.5,2.8-6.9,2.8-10.1c0-1.7-1.2-3.1-2.4-3.1
						c-2.3,0-3.4,2.3-5,2.3c-0.9,0-1.5-0.5-1.5-1.4c0-7.3,2.6-12,2.6-31.1c0-6.3-1.1-10.8-3.6-17.2C22,27.1,22,20.6,22,19
						c0-2.2,2.5-2.7,5.2-2.7c5.6,0,7.5,2.3,7.5,5.9c0,13.3-1,17.8-1,21.5c0,2.2,1.4,7.7,5.1,7.7c1,0,1.6-0.9,1.6-3.5
						c0-0.7-0.2-1.5-0.2-2.6c0-4.4,2.3-5.7,2.3-12.9c0-4.1-1.7-10-1.7-11.6c0-2.3,1-5.1,3.7-5.1c2.1,0,4.5,2,6.2,2
						c1.5,0,2.6-1,3.7-1c2,0,2.5,0.7,2.5,2.8c0,1.2-0.8,3.5-0.8,4.8c0,2.7,1,7,1,9.8c0,2.1-0.3,3.7-0.3,5.2c0,3.6,0.5,5.4,2.6,5.4
						c3.7,0,2.6-7.3,3.4-20.7c0.2-3.7,0.9-5.3,6-5.3c2.3,0,3.8-0.5,5.1-0.5C76.2,18.1,77.1,19.2,77.1,21.3z"/>
					<path class="st1" d="M94.3,45.3c-0.7,0-1.9,0.2-1.9,1.8c0,1.8,0.8,3.6,0.8,5.5c0,5-0.6,7.1-0.6,7.7c0,1.7,1.6,6.1,1.6,8.9
						c0,1.7-0.9,4.5-0.9,7.3c0,1.1,0.1,3,0.1,3.7c0,1.8-0.5,4.2-0.5,5.2c0,0.7,1.4,3,1.4,3.5c0,2.5-4.6,0.5-4.6,2.4
						c0,1.1,0.6,5,0.6,5.8c0,1.1-0.5,3.7-2.1,3.7c-0.5,0-0.7-0.9-0.7-2.7c0-1,0.1-4,0.1-5c0-1.7-0.1-2.5-0.6-2.5
						c-1.7,0-1.1,5.4-2.8,5.4c-0.6,0-1-0.3-1-1.2c0-1.7,0.2-3.3,0.2-3.6c0-0.6-0.4-1-1.7-2.6c-1.8-2.3-2-3.5-2-5.2
						c0-0.2,1.1-4.4,1.1-8.3c0-4.4,1-7.3,1-8.7c0-2.1-2.2-2.4-2.2-5.5c0-3.3,2.6-6.3,2.6-10.1c0-5.1-0.6-8.5-0.6-9.2
						s0.5-3.7,0.5-4.8c-0.2-0.7-0.1-1.6-1.6-3.7c-0.9-1.4-1-1.1-1-2.5c0-1.5,1.6-4.5,1.6-5.9c-0.3-1.9-0.7-3.2-0.7-4.5
						c0-1.4,0.9-2.2,2.3-2.2c0.8,0,3,0.9,4.3,0.9c1,0,2.1-0.7,3.1-0.7c1.9,0,5.4,1.6,5.4,4.9c0,2.5-1.7,5-1.7,7.3
						c0,3,2.1,10.7,2.1,13.7c0,0.8-0.2,1.2-0.5,1.2S94.6,45.3,94.3,45.3z"/>
					<path class="st1" d="M128.4,20c4,1.2,7.8,8.8,7.8,14c0,1.5-0.6,4.9-0.6,6.6c0,2.3,0.5,2.9,0.5,4c0,0.9-0.4,2-1.5,2
						c-0.7,0-1.9-2.7-2.2-2.7c-0.4,0-1,0.7-1.4,0.7c-0.5,0-1.5-1.6-1.9-1.6c-2.4,0-0.1,5.6-2.5,5.6c-1.7,0-0.8-2.1-1.6-3.4
						c-0.8-1.6-2-1.9-2-5.5c0-0.5,0.1-1.1,0.1-2.2c0-4.9-0.2-8.2-1.5-8.2c-0.8,0-1.6,2-1.6,4.6c0,1.4,0.7,3.6,0.7,5.2
						c0,1.1-0.3,2.1-1.4,2.1c-1.6,0-1.8-4-1.8-4.8c0-1.1,0.2-2.5,0.2-3.5c0-1.2-0.2-2.1-1.1-2.1c-0.8,0-1.6,0.8-1.6,1.7
						c0,1.6,1.7,3.4,1.7,4.3c0,1-0.6,1.9-1.4,1.9s-1-0.4-1.8-0.4s-0.7,0.9-0.7,1.5c0,3.2,1,3,1,4.8c0,2.3-1.6,5.7-1.6,7.7
						c0,1,0.4,2.1,2,4.2c0.7,1,1.1,2.3,1.1,3.7c0,3.5,0.4,5.1,0.4,5.5c0,0.8-0.5,2.2-2.2,2.8c-1.2,0.4-1.5,0.9-1.5,1.5
						c0,0.7,1.5,1.9,1.5,2.9c0,0.4-0.2,0.8-0.6,1.2c-0.6,1.1-0.6,2.3-0.6,3.5c0,1.9,1,2.6,2.2,2.6c0.4,0,1.9-0.4,2.5-0.4
						c0.7,0,1.7,0.8,2.4,0.8c3.8-0.2,4.7-9.3,4.7-13c0-1.5-0.2-2.1-0.2-3s0.3-1.6,0.9-1.6c0.9,0,1.9,1,2.6,1c0.8,0,1.4-0.8,2.1-0.8
						c0.8,0,1.5,0.6,2.4,0.6c0.7,0,1.6-0.8,2-0.8c1.8,0.2,2.6,1.8,2.6,3.6c0,2.7-2.2,5.2-2.2,8.4c0,1,0.2,2.3,0.2,4
						c0,3.2-1.9,5.3-6.4,9.6c-0.9,0.9-3.6,1.8-4.7,3.3c-0.5,0.4-0.7,3.5-1.7,3.5c-0.8,0-2.4-4.1-3.5-4.1c-2.3,0-0.4,5.2-3.1,5.2
						c-1.5,0-0.3-6.6-2.7-6.6c-1.6,0-0.2,3.4-1.7,3.4c-1.1,0-1.1-4.4-2.6-4.9c-0.5-0.2-1.1-0.3-1.6-0.7c-1.5-1.2-1.9-5.6-2.5-5.6
						c-0.3,0-0.2,1.1-0.8,1.1s-0.9-0.8-0.9-3c0-1.5,0.5-2,0.5-3c0-1.2-0.9-1-0.9-2.1s0.6-2.5,0.6-2.9c0-0.7,0-1.2-0.3-1.2
						c-0.4,0-0.5,0.6-0.9,0.6s-0.5-0.3-0.5-0.7c0-2.4,1.2-3.7,1.2-9.3c0-7.3-0.6-17-0.6-26.9c0-7.4,2-12,5.9-13.7
						c6.6-2.8,7.9-4.8,9.3-4.8C118.9,16.2,124.9,18.6,128.4,20z"/>
					<path class="st1" d="M151.1,18.9c1,0,2.8-0.8,3.7-0.8c1,0,1.9,0.4,1.9,1.9c0,0.5-0.2,2.3-0.2,2.6c0,4.3,1,4.6,1,7.2
						c0,1.7-2.5,1.8-2.5,3.2c0,1.6,0.7,3.3,0.7,3.6c0,1-0.5,3-0.5,3.7c0,1,0.5,2.4,2,2.4c1.1,0,0.6-4,3-9.5c2.3-5.2,1.7-5.5,3.7-7.8
						c2-2.2,3.2-4,3.5-4.8c0.8-2.3,2.1-2.5,2.7-2.5c0.7,0,2.3,0.3,3.1,0.3c1.2,0,2.4-0.9,3.5-0.9c0.8,0,1.2,0.7,1.2,1.5
						c0,1.4-2.2,10.5-2.2,12.9c0,1.5,0.7,3.4,0.7,5.5c0,1.9-0.5,2.3-1.2,2.3c-0.9,0-1.4-0.9-1.4-1.6c0-2,0.2-3.6,0.2-4.4
						s-0.1-1.8-0.9-1.8c-1.1,0-2.1,2.4-2.1,4s0.7,2.9,0.7,4.2c0,1-0.3,1.7-1,1.7c-0.5,0-1.2-0.4-1.7-0.4c-1.4,0-1.8,1.8-1.8,2.9
						c0,1,1,3.5,1,5c0,0.9-0.2,2.7-0.2,3.7c0,1.6,0.4,3.2,1.2,4.9c2.8,6,1.4,5.5,4.2,14.2c-0.6-1.1,5.5,7.7,5.5,10.6
						c-0.1,0.2-0.1,0.4-0.1,0.7c0,0.8,0.4,2,0.5,3.6c-0.2,1.8-3.8,2.7-3.8,4.3c0,1,0.9,3.2,0.9,4.2c0,0.5-0.6,4.3-1.7,4.3
						c-1.4,0-1.7-2.6-1.7-4.2c0-0.4,0.2-1.8,0.2-2.3c0-0.7-0.4-1.4-1.2-1.4c-0.7,0-1.4,1.8-1.8,1.8c-0.9-0.1-0.8-2.4-1-2.8
						c-0.9-1-2.1-1.9-2.8-3c-1-1.6-0.9-4.8-1-5.9c-0.6-2.8-1.9-5.8-2.6-8.7c-1.1-4-3.5-7.9-3.5-12.6c0-2.6-0.5-2.9-0.9-2.9
						c-1.4,0-2.4,0.9-2.4,3c0,0.9,1.6,3.2,1.6,4.3c0,0.7,0,1.9-0.5,3.5c-1.5,4.7-2,7.7-2,13.9c0,1.7,1.1,3.2,1.1,4.8
						c0,0.9,0.1,1.7-2.6,3.6c-1.6,1.1-1.8,2-1.8,2.8c0,0.6,0.4,2.1,0.4,2.7c0,3.1-0.7,4.4-1.7,4.4c-1.7,0-1.6-8.9-2.6-8.9
						c-1.2,0-0.4,3.5-2.3,3.5c-2-0.5-2.8-11.4-2.8-13.1c0-1.9,0.5-3.1,0.5-4.4c0-2.3-2.6-3.6-2.6-4.9c0-3.1,2.7-2,2.7-10.6
						c0-2-0.2-3.5-0.2-4.3c0-2.6,0.8-3.2,0.8-9.7c0-2.3-1-5.2-1-8c0-2.5,0.7-4.9,0.7-6.8c0-2.8-0.6-7.8-0.6-11.2
						c0-3.7,1.1-4.3,3.6-4.3C148.4,18.3,149.8,18.9,151.1,18.9z"/>
					<path class="st1" d="M213.5,85.4c0,0.5,0.2,1.8,0.2,3.3c0,1.2-0.5,1.8-1.6,1.8c-0.7,0-4-1-5.2-1s-2.2,0.9-2.2,2.2
						c0.3,1.8,1.1,2.3,1.1,5c0,0.8-0.1,1.1-1,1.1c-1.6,0.1-2.7-7.7-4.6-7.7c-1.6,0-2.6,2-2.6,2.7c0,0.8,0.6,1.5,0.6,2.2
						c0,2-0.6,2.3-1.5,2.3c-3.2,0-2.6-6.4-4.4-6.4c-0.3,0-1,1.6-2,1.6c-0.7,0-2.3-1.6-3-1.6c-0.4,0-1.2,0.6-1.7,0.6
						c-1.9,0-1.2-3.7-1.5-4.6v-2c0-0.5,0.1-1.9,0.1-2.6V80c0-3.3,0.7-10.8,0.7-14c0-2.5,1.4-6,1.4-6.6c0-0.9-0.4-1.5-1.6-1.5
						c-0.4,0-1,0.3-1.5,0.3c-0.8,0-0.9-1.1-0.9-1.8c0-0.5,0-1,0.4-2c1.2-2.2,1.5-5.3,1.5-7.6c0-3.5,1.4-6.1,1.4-8.7c0-0.7-1-3.5-1-5
						c0-1,0.2-2.7,0.2-3.6c0-0.8-0.5-2.6-0.5-3.6c0-0.5,0.3-1.4,0.3-1.9c0-0.7-1-2-1-2.8c0-1.7,1.7-2.4,4-2.4c0.4,0,1.4,0.1,2.1,0.1
						c1.9,0,2.3-0.9,3.8-0.9c0.9,0,2,0.9,2.7,0.9s1-0.6,2.1-0.6c1.5,0,3.3,1.7,4.9,1.7c1,0,2.1-1.1,3.5-1.1c1,0,1.5,0.5,2.2,0.5
						s1.1-0.7,2.7-0.7c0.7,0,1.2,1.4,1.2,5.2c0,2.7,1.5,12.3,1.5,16c0,1.2-0.6,2-2.1,2c-0.9,0-1.5-0.5-1.5-1.6c0-0.8,0.2-3.6,0.2-4
						c0-3.6-0.3-6.8-0.9-6.8c-1.9,0-0.1,6.9-2.2,6.9c-0.6,0-1-0.3-1.1-0.8c-0.5-2.4-0.7-3.2-1-3.7c-1.4-0.9-2.6-1.9-3.8-1.9
						c-2.3,0-2.5,2.6-3.6,2.6c-0.6,0-0.9-0.2-1.4-0.2c-2.3,0-2.8,2.4-2.8,5.6c0,6.1,4,9.7,5.5,9.7c0.3,0,3.5-0.7,4-0.7
						c1.6-0.3,3.8-0.3,4.4-0.3c1,0,1.8,1.1,1.8,2.6c0,0.7-0.9,2.6-0.9,3.6c0,2.2,2,7.6,2,9.2c0,1.9-1.6,4.5-2.5,4.5
						c-2.1,0-0.5-5.7-3.1-5.7c-2.2,0-0.4,3.8-2.2,3.8c-1.2,0-1.7-3.4-2.8-3.4c-0.7,0-1.5-0.4-2.2-0.4c-0.9,0-1.4,0.2-1.4,1
						s0.7,1.9,0.7,6.7c0,1.6-1.5,4.4-1.5,5.5c0,1.7,1.5,3.8,5.9,3.8c0.6,0,1.5-0.1,2.4-0.1c1.5,0,4.2,0.8,5.5,0.8
						c0.4,0,0.9-0.1,1.5-0.1c1.6,0,3.2,1.7,3.2,3.2C214.4,82.8,213.5,84.5,213.5,85.4z"/>
					<path class="st1" d="M254.3,71.5c0,2.3,0.9,3.4,0.9,4.6c0,2.1-2.3,2.2-2.3,3.5c0,2.6,0.6,1.9,0.6,4.4c0,0.9-2.6,2.5-2.6,4.6
						c0,0.6,0.1,1.2,0.1,2.5c0,1-0.4,1.6-1.2,1.6c-1.1,0-3.1-2.7-4.1-2.7c-1.2,0-1.7,1.7-1.7,3.1c0,1,0.2,1.9,0.2,2.5
						c0,0.5-0.2,0.8-0.7,0.8c-1.4,0-2.4-5.9-5-5.9c-1.7,0-1.8,1.4-2.8,1.4c-1.7,0-2.6-2.9-8.1-2.9c-2,0-2.5,2.4-2.5,3.1
						c0,0.8,1.6,2.9,1.6,4.1c0,1-0.4,1.7-1.8,1.7c-0.5,0-1.6-0.4-1.6-1.9c0-1.1,0.4-2.7,0.4-3.4c0-0.3,0-2.3-1.2-2.3
						c-0.4,0-0.6,0.5-1.4,0.5c-0.6,0-0.8-0.7-0.8-1.2c0-1.2,0.8-1.9,0.8-4c0-5.7-0.5-7-0.5-8.6c0-2.4,0.6-5.2,0.6-6.2
						s-0.2-1.4-1.4-3.5c-0.3-0.5-0.5-1-0.5-1.6c0-2,1.1-5.5,1.1-7.5c0-4.8,1.2-8.7,1.2-13c0-1.5-0.8-3.5-0.8-4c0-3.5,1.5-6.4,1.5-7
						c0-2.4-3.6-3.2-3.6-5.7c0-3.8-0.3-3.8-0.3-5.5c0-2.2,0.7-3.8,3.4-3.8c0.4,0,2.1,0.2,2.4,0.2c1.5,0,3.7-0.9,4.3-0.9
						c1.1,0,2.8,1.5,4,1.6c1.1,0,3.1-1.1,4.2-1.1c2.2,0.1,3.4,1.2,5.7,1.5c5.7,0.4,10.2,6,11.9,14.9c0,0.7,0.1,1.6,0.1,2.2
						c0,5-1.9,3.5-1.9,5.1c0,3.4,3,8.7,3,11.3c0,7.3-0.6,11.1-0.6,12.1C255,67.2,254.3,68.7,254.3,71.5z M243.3,60.6
						c0-4.5,0.5-9.3,0.5-14c0-2-0.4-3.3-2-3.3c-1.8,0-1.6,3.8-3.1,3.8c-0.5,0-0.8-0.5-0.8-1.7c0-3,0.6-5.9,0.6-6.4c0-2,0.1-3,0.1-4
						c0-1.4-0.1-2.2-1.6-2.2c-0.5,0-0.7,0.3-0.7,1.1c0,1,0.6,3.1,0.6,4c0,0.5-0.2,0.7-0.5,0.7c-1.7,0-2.4-1.4-2.4-3.1
						c0-0.7,0.5-2.5,0.5-3.2c0-1.2-0.8-2.7-1.6-2.7s-0.9,2.2-0.9,2.8c0,0.1,0.5,3,0.5,3.5c0,1.4-0.9,2.5-0.9,4.6
						c0,3,2.2,5.8,2.2,8.1c0,4.7-1.6,5.4-1.6,10.4c0,1.9,0.1,3.2,0.7,4.9c0.5,1.2,1.6,2.4,1.6,4c0,0.6-0.2,0.9-0.7,0.9
						c-0.1,0-1.2-0.3-1.5-0.3c-0.9,0-1.2,0.8-1.2,1.4c0,1.2,0.9,7.9,3.7,7.9c1,0,2,0.1,2.9,0.1c3.1,0,5.5-1.2,5.5-12.7v-2.6
						L243.3,60.6L243.3,60.6z"/>
				</g>
				<g class="st0">
					<path class="st1" d="M56.6,131.3c0,3.6-3,9.7-3,23.7c0,5.2,0.5,6.1,0.5,8.1c0,3.8-1.8,8.7-1.8,12.7c0,2.8,1.5,5.9,1.5,7.2
						c0,1.9-0.5,2.5-1.6,2.5c-0.9,0-1.4-0.6-1.4-1.7c0-1.1,0.3-2.3,0.3-3.4c0-2.1-0.9-3.1-2.1-3.1c-1.7,0-2.1,1.1-2.1,3.2
						c0,1.9,1.8,3.8,1.8,5.3c0,2-1.7,0.7-2.3,7.4c-0.1,1.1-1.7,4.7-1.7,7c0,1.7,1.5,5.4,1.5,7.3c0,5-0.3,7-2,7
						c-1.2,0-2.5-1.2-2.5-3.5c0-1.9,0.7-5.2,0.7-7.6c0-1.9-0.5-3.3-2.6-3.3c-1.7,0-0.5,5.3-3.1,5.3c-1.6,0-2.3-3.1-2.3-6.6
						c0-2.6,0.3-5.5,0.3-6.7c0-4-0.4-5.3-1.5-5.3c-0.5,0-1.7,1-2.2,1s-0.8-0.7-0.8-2c0-3,0.9-6,0.9-9.5c0-1.7-0.4-2.8-0.4-7.7
						c0-3.2-0.4-4.8-1.7-4.8c-3,0-3.1,5.3-3.1,8.8c0,3.3,0.2,4.4,0.2,6.2c0,2.7-1.2,9-1.2,11.6c0,3.2,1.9,6.1,1.9,8.1
						c0,4.2-0.7,5.6-2.7,5.6c-1.4,0-2.4-3.7-4-3.7c-1.1,0-1.7,0.5-1.7,1.6c0,1.4,0.9,3.7,0.9,5.8c0,1.7-0.5,2.4-1.1,2.4
						c-1.8,0-0.4-10.5-3.7-10.6c-0.8,0-2.3,1.5-3.6,1.5c-0.8,0-1.4-0.4-1.4-1.2c0-1.5,2.8-6.9,2.8-10.1c0-1.7-1.2-3.1-2.4-3.1
						c-2.3,0-3.4,2.3-5,2.3c-0.9,0-1.5-0.5-1.5-1.4c0-7.3,2.6-12,2.6-31.1c0-6.3-1.1-10.8-3.6-17.2c-0.9-2.2-0.9-8.7-0.9-10.3
						c0-2.2,2.5-2.7,5.2-2.7c5.6,0,7.5,2.3,7.5,5.9c0,13.3-1,17.8-1,21.5c0,2.2,1.4,7.7,5.1,7.7c1,0,1.6-0.9,1.6-3.5
						c0-0.7-0.2-1.5-0.2-2.6c0-4.4,2.3-5.7,2.3-12.9c0-4.1-1.7-10-1.7-11.6c0-2.3,1-5.1,3.7-5.1c2.1,0,4.5,2,6.2,2
						c1.5,0,2.6-1,3.7-1c2,0,2.5,0.7,2.5,2.8c0,1.2-0.8,3.5-0.8,4.8c0,2.7,1,7,1,9.8c0,2.1-0.3,3.7-0.3,5.2c0,3.6,0.5,5.4,2.6,5.4
						c3.7,0,2.6-7.3,3.4-20.7c0.2-3.7,0.9-5.3,6-5.3c2.3,0,3.8-0.5,5.1-0.5C55.6,128.1,56.6,129.2,56.6,131.3z"/>
					<path class="st1" d="M90,195.4c0,0.5,0.2,1.8,0.2,3.3c0,1.2-0.5,1.8-1.6,1.8c-0.7,0-4-1-5.2-1s-2.2,0.9-2.2,2.2
						c0.3,1.8,1.1,2.3,1.1,5c0,0.8-0.1,1.1-1,1.1c-1.6,0.1-2.7-7.7-4.6-7.7c-1.6,0-2.6,2-2.6,2.7c0,0.8,0.6,1.5,0.6,2.2
						c0,2-0.6,2.3-1.5,2.3c-3.2,0-2.6-6.4-4.4-6.4c-0.3,0-1,1.6-2,1.6c-0.7,0-2.3-1.6-3-1.6c-0.4,0-1.2,0.6-1.7,0.6
						c-1.9,0-1.2-3.7-1.5-4.6v-2c0-0.5,0.1-1.9,0.1-2.6V190c0-3.3,0.7-10.8,0.7-14c0-2.5,1.4-6,1.4-6.6c0-0.9-0.4-1.5-1.6-1.5
						c-0.4,0-1,0.3-1.5,0.3c-0.8,0-0.9-1.1-0.9-1.8c0-0.5,0-1,0.4-2c1.2-2.2,1.5-5.3,1.5-7.6c0-3.5,1.4-6.1,1.4-8.7c0-0.7-1-3.5-1-5
						c0-1,0.2-2.7,0.2-3.6c0-0.8-0.5-2.6-0.5-3.6c0-0.5,0.3-1.4,0.3-1.9c0-0.7-1-2-1-2.8c0-1.7,1.7-2.4,4-2.4c0.4,0,1.4,0.1,2.1,0.1
						c1.9,0,2.3-0.9,3.8-0.9c0.9,0,2,0.9,2.7,0.9s1-0.6,2.1-0.6c1.5,0,3.3,1.7,4.9,1.7c1,0,2.1-1.1,3.5-1.1c1,0,1.5,0.5,2.2,0.5
						s1.1-0.7,2.7-0.7c0.7,0,1.2,1.4,1.2,5.2c0,2.7,1.5,12.3,1.5,16c0,1.2-0.6,2-2.1,2c-0.9,0-1.5-0.5-1.5-1.6c0-0.8,0.2-3.6,0.2-4
						c0-3.6-0.3-6.8-0.9-6.8c-1.9,0-0.1,6.9-2.2,6.9c-0.6,0-1-0.3-1.1-0.8c-0.5-2.4-0.7-3.2-1-3.7c-1.4-0.9-2.6-1.9-3.8-1.9
						c-2.3,0-2.5,2.6-3.6,2.6c-0.6,0-0.9-0.2-1.4-0.2c-2.3,0-2.8,2.4-2.8,5.6c0,6.1,4,9.7,5.5,9.7c0.3,0,3.5-0.7,4-0.7
						c1.6-0.3,3.8-0.3,4.4-0.3c1,0,1.8,1.1,1.8,2.6c0,0.7-0.9,2.6-0.9,3.6c0,2.2,2,7.6,2,9.2c0,1.9-1.6,4.5-2.5,4.5
						c-2.1,0-0.5-5.7-3.1-5.7c-2.2,0-0.4,3.8-2.2,3.8c-1.2,0-1.7-3.4-2.8-3.4c-0.7,0-1.5-0.4-2.2-0.4c-0.9,0-1.4,0.2-1.4,1
						s0.7,1.9,0.7,6.7c0,1.6-1.5,4.4-1.5,5.5c0,1.7,1.5,3.8,5.9,3.8c0.6,0,1.5-0.1,2.4-0.1c1.5,0,4.2,0.8,5.5,0.8
						c0.4,0,0.9-0.1,1.5-0.1c1.6,0,3.2,1.7,3.2,3.2C90.9,192.8,90,194.5,90,195.4z"/>
				</g>
				<g class="st0">
					<path class="st1" d="M110.9,129c2.9,0,4.3-1.4,6-1.4c1.9,0,1.7,1,2.5,4.3l0.9,3.4c0.3,1.4,0.6,2.9,0.7,4.1
						c0,0.9-0.4,2.9-0.4,4.1c0,2.6,0.2,5.2,0.6,7.6c0,0.4,3.3,10.8,3.3,17.5c0,5.8,2.3,7.8,2.3,12.1c0,1.6,0.2,4.5,1.5,8.7
						c2.1,7.7,2.4,8.8,2.4,11.9c0,2.9-0.9,4.3-2.6,4.3c-1.2,0-1.7-0.6-1.7-1.8c0-0.7,0.2-1.7,0.2-2.3c0-0.9-0.3-1.2-0.9-1.2
						c-1.8,0-0.7,4.6-2.3,4.6c-1.5,0-1.4-4.7-2.5-4.7c-0.4,0.1-0.6,0.6-0.6,1.9c0,0.7,0.3,2.3,0.3,3.4c0,1.4-0.6,2-1.2,2
						c-2,0-1.9-5.5-2-9c-0.1-2.4-1.2-5.2-1.2-8.3c0-3.3-0.5-5.8-2.1-5.8c-1.5,0-1.1,4.7-2.9,4.7c-1.4,0-3.2-3.7-4.1-3.7
						c-0.4,0-0.7,0.5-0.7,1.2c0,1.5,0.6,1.6,0.6,3c0,0.8-2.1,1.4-2.1,2.7c0,0.8,0.7,2.2,0.7,3.4c0,3.6-4,0.2-4,6.7
						c0,1.7,0,3.3-1.5,3.3c-2.7,0-1-5.3-3.1-5.3c-0.8,0-1.9,2.6-2.7,2.6c-0.7,0-1.1-0.4-1.1-1.2c0-1.9,0.7-2.5,0.7-7.5
						c0-2.6-0.1-5.7,0.3-7.6l0.9-4.6l2.3-9.5c0.3-1.1,0.4-2,0.4-2.5c0-0.6-0.5-0.8-0.5-1.8s0.4-2.6,1-4.6c1.2-4.3,0.5-5.4,2.5-16.1
						c1.2-6.9,0.7-20,4.4-20C106.6,127.7,108.8,129,110.9,129z M107.8,167.5c0,1.5,0.6,2.1,0.7,2.8c0,0.4-0.7,1-0.7,2.6
						c0,0.8,1.1,1.2,3.2,1.2c2.4,0,3.1-0.6,3.1-1.4c0-0.7-0.4-1.9-0.4-3.3c0-7-0.4-7.7-0.8-7.7c-1,0-0.4,3.6-1.8,3.6
						c-1.5,0-0.3-5.1-1.5-5.1C108.5,160.3,107.8,165,107.8,167.5z"/>
				</g>
				<g class="st0">
					<path class="st1" d="M160.9,135.4c0,1.7-1.6,5.8-1.6,7.9c0,2.3,0.4,2.7,0.4,3.4c0,1.2-0.3,1.8-1.2,1.8c-2.7,0-1.2-7-2.6-7
						c-1.1,0-1.2,2.6-2.2,2.6c-1.4,0-1.9-2.3-3.6-2.3c-2.3,0-2.9,1.6-2.9,5.7c0,1,0.4,2.6,0.4,3.3c0,3.1-0.6,5.4-0.6,7.2
						c0,5.3,2.1,6.4,2.1,13.6c0,5.3-1.9,7.9-1.9,12.1c0,3,0.9,4.4,0.9,6.6c0,0.7-0.3,1.8-0.3,2.4c0,1.1,1.2,3.3,1.2,4.6
						c-0.3,3-5.5,1.6-5.5,7.8c0,2.9,1.2,5,1.2,8.4c0,1.1-1,2.1-3,2.1c-1.7,0-2.5-0.6-2.5-2c0-1.9,1-3.5,1-5.3c0-3.5,0-8.6-1.9-8.6
						c-0.9,0-0.8,1.8-1.9,1.8c-1.6,0-2.4-7.2-2.4-9.5c0-6.3,2.7-15.3,2.7-17.7c0-4.7-0.5-5.4-0.5-7c0-2.3,0.7-9.9,1.2-14.5
						c0.4-3.6,1.4-8.1,1.4-10c0-2.1-2-2.1-2.9-2.1c-2.9,0-2,6.9-4.8,6.9c-2.4,0-1.5-6.9-4.9-6.9c-1.1,0-2.5-0.8-2.5-2.1
						c0-0.8,1.5-2.7,1.5-4c0-1.1-0.9-4.1-0.9-4.9c0-0.9,0.5-1.2,1.4-1.2c1.8,0,3.3,1.6,5.2,1.6c4,0,6.1-2.2,8.7-2.2
						c4.7,0,5.6,1.4,10.6,1.4c3,0,5-1.5,6.4-1.5C159.6,127.9,160.9,132.8,160.9,135.4z"/>
					<path class="st1" d="M195.7,181.7c0,7.7,2.2,12.4,2.2,13.6c0,2.6-2.3,5.5-3.2,5.5c-0.4,0-1.6-0.3-1.9-0.3c-0.3,0-1.5,0-1.5,1.2
						c0,0.8,0.7,3.6,0.7,3.4c0,0.8-0.4,1.2-1.2,1.2c-0.3,0-0.5-0.5-0.5-1.7V203c0-2.1-0.5-2.9-1.5-2.9c-1.1,0-2.4,1.7-3.5,1.7
						c-0.6,0-1-0.7-1-2v-2.2c-0.1-1.1-0.8-7.3-0.8-8.2c0-0.5,0.2-2.1,0.2-2.4c0-0.4-0.1-0.7-0.1-1.5c0-2.1,2-5.6,2-8
						c0-1,0.6-5.2,0.6-6.6c0-1.5-0.5-2.2-1.2-2.2c-0.6,0-2.6,2.8-3.3,2.8c-0.5,0-1.9-0.5-2.2-0.5c-0.4,0-1,0.5-1,1.4
						c0,0.1,0.4,0.9,0.4,2.7v1.4c0,0.6-0.3,1.6-0.9,1.6s-1.6-2.6-2.6-2.6c-0.3,0-0.6,0.3-0.6,0.8c0,0.9,1,4.1,1,5.4
						c0,1.7-0.6,4.9-0.6,5.8c0,1.1,0.6,2.3,0.6,4.1c0,0.4-0.1,0.6-0.1,1c0,2.4,1.1,4.8,1.1,4.9c0,1.1-1.1,2.9-1.9,2.9
						c-0.2,0-0.3-0.1-0.7-0.1c-1.5,0-3.7,0.4-4.3,2.5c0,0.8,1.2,2.2,1.2,2.9s-0.4,1.1-1.2,1.1c-0.7,0-1.5-0.7-1.5-1.6
						c0.1-1.2,0.3-2.2,0.3-2.9c0-1.6-0.5-2.3-1.5-2.3c-1.1,0-3,2.3-3.5,2.3c-0.4,0-0.8-0.3-0.8-0.9c-0.1-0.1,0.8-3.1,0.8-4.4
						c0-1-0.9-2.9-0.9-3.6c0-0.8,1.6-3.2,1.6-4.1c0-3.4-3-1.2-3-5.8c0-1.4,1.8-4.5,1.8-6v-4c0-5.6,2.1-12.2,2.1-13
						c0-2.3-1.4-6.1-2-6.1c-0.4,0-0.9,0.9-1.2,0.9c-0.5-0.1-0.7-0.6-0.7-1.6c0-2.3,2-9.9,2-14.4c0-2.7-0.2-4.5-0.2-6.2
						c0-2.3,1.8-5.1,4.9-5.1c0.5,0,1.9,0.3,2.7,0.3c0.5,0,0.9-0.2,1.7-0.2c2.5,0,2.7,3.8,2.7,6.3c0,7.3,2.4,8.6,2.4,11.3
						c0,1.9-2.5-0.4-2.5,4.9c0,3.3,1,5.8,3.2,5.8c0.5,0,1.2-0.3,1.9-0.3c1.4,0,3.7,0.8,3.6,0.8c0.5,0,0.8-0.4,0.9-1
						c0-0.2-0.7-2.8-0.7-3.8V147c0-5.8-0.1-7.3-0.1-8.1c0-1.6,0.8-4.2,0.8-5.1c0-1.8-1.6-2.5-1.6-3.1c0-1.5,2.4-2.8,4.6-2.8
						c2.9,0,4.3,0.4,4.9,0.4c0.4,0,2.2-0.6,2.6-0.6c2.6,0.5,2.9,4.4,2.9,9.4c0,2-0.2,5.2-0.7,6.4l-0.9,2.1c-0.3,0.8-0.4,1.8-0.4,2.9
						c0,3.6,1.7,9.2,1.7,10.2v1.5c0,2.9,0.4,4.7,0.4,5.1c0,1.4-0.7,3.5-0.7,4.8s1.1,3.6,1.1,4.5c0,0.1-0.1,0.5-0.2,1
						C197.9,176.1,195.7,178.6,195.7,181.7z"/>
					<path class="st1" d="M235.3,195.4c0,0.5,0.2,1.8,0.2,3.3c0,1.2-0.5,1.8-1.6,1.8c-0.7,0-4-1-5.2-1s-2.2,0.9-2.2,2.2
						c0.3,1.8,1.1,2.3,1.1,5c0,0.8-0.1,1.1-1,1.1c-1.6,0.1-2.7-7.7-4.6-7.7c-1.6,0-2.6,2-2.6,2.7c0,0.8,0.6,1.5,0.6,2.2
						c0,2-0.6,2.3-1.5,2.3c-3.2,0-2.6-6.4-4.4-6.4c-0.3,0-1,1.6-2,1.6c-0.7,0-2.3-1.6-3-1.6c-0.4,0-1.2,0.6-1.7,0.6
						c-1.9,0-1.2-3.7-1.5-4.6v-2c0-0.5,0.1-1.9,0.1-2.6V190c0-3.3,0.7-10.8,0.7-14c0-2.5,1.4-6,1.4-6.6c0-0.9-0.4-1.5-1.6-1.5
						c-0.4,0-1,0.3-1.5,0.3c-0.8,0-0.9-1.1-0.9-1.8c0-0.5,0-1,0.4-2c1.2-2.2,1.5-5.3,1.5-7.6c0-3.5,1.4-6.1,1.4-8.7c0-0.7-1-3.5-1-5
						c0-1,0.2-2.7,0.2-3.6c0-0.8-0.5-2.6-0.5-3.6c0-0.5,0.3-1.4,0.3-1.9c0-0.7-1-2-1-2.8c0-1.7,1.7-2.4,4-2.4c0.4,0,1.4,0.1,2.1,0.1
						c1.9,0,2.3-0.9,3.8-0.9c0.9,0,2,0.9,2.7,0.9s1-0.6,2.1-0.6c1.5,0,3.3,1.7,4.9,1.7c1,0,2.1-1.1,3.5-1.1c1,0,1.5,0.5,2.2,0.5
						s1.1-0.7,2.7-0.7c0.7,0,1.2,1.4,1.2,5.2c0,2.7,1.5,12.3,1.5,16c0,1.2-0.6,2-2.1,2c-0.9,0-1.5-0.5-1.5-1.6c0-0.8,0.2-3.6,0.2-4
						c0-3.6-0.3-6.8-0.9-6.8c-1.9,0-0.1,6.9-2.2,6.9c-0.6,0-1-0.3-1.1-0.8c-0.5-2.4-0.7-3.2-1-3.7c-1.4-0.9-2.6-1.9-3.8-1.9
						c-2.3,0-2.5,2.6-3.6,2.6c-0.6,0-0.9-0.2-1.4-0.2c-2.3,0-2.8,2.4-2.8,5.6c0,6.1,4,9.7,5.5,9.7c0.3,0,3.5-0.7,4-0.7
						c1.6-0.3,3.8-0.3,4.4-0.3c1,0,1.8,1.1,1.8,2.6c0,0.7-0.9,2.6-0.9,3.6c0,2.2,2,7.6,2,9.2c0,1.9-1.6,4.5-2.5,4.5
						c-2.1,0-0.5-5.7-3.1-5.7c-2.2,0-0.4,3.8-2.2,3.8c-1.2,0-1.7-3.4-2.8-3.4c-0.7,0-1.5-0.4-2.2-0.4c-0.9,0-1.4,0.2-1.4,1
						s0.7,1.9,0.7,6.7c0,1.6-1.5,4.4-1.5,5.5c0,1.7,1.5,3.8,5.9,3.8c0.6,0,1.5-0.1,2.4-0.1c1.5,0,4.2,0.8,5.5,0.8
						c0.4,0,0.9-0.1,1.5-0.1c1.6,0,3.2,1.7,3.2,3.2C236.3,192.8,235.3,194.5,235.3,195.4z"/>
					<path class="st1" d="M272.3,203.7c0,0.4,0.4,1.5,0.4,3.1c0,3.4-0.8,6.6-2,6.6c-0.7,0-0.9-0.6-0.9-1.7c0-1.7,0.2-3.1,0.2-3.7
						c0-2.2-0.5-7.2-1.6-7.2c-1.8,0-1.8,1.6-2.8,1.6c-0.4,0-0.9-0.2-0.9-0.8c0-0.5,0.6-2.5,0.6-4.1c0-1.8-0.4-3.4-1.2-5.3
						c-1.9-4.1-2.8-7.2-2.8-8.8c0-0.9,0.2-1.6,0.2-2.4c0-2.4-2.1-4.3-2.1-5.9c0-1.6,0.4-1.9,0.4-3.2c0-0.7-0.3-1.1-0.9-1.1
						c-1,0-2.2,0.4-2.2,2.8c0,1.7,0.3,2,0.3,2.6c0,0.5-0.4,0.6-0.6,0.6c-1.5-0.1-0.7-4.2-2.1-4.2c-0.4,0-0.6,0.6-0.6,1.9
						c0,0.9,0.5,6.1,0.5,6.8c0,1.2-0.7,6.8-0.7,10.5c0,2.7,1.1,5.5,1.1,8.6c0,3.7-0.1,4.9-1.1,4.9c-2.3,0-1-4.3-2.8-4.3
						c-1.2,0-2.6,1.7-2.6,3.1c0,1.6,0.6,4.1,0.6,4.5c0,0.6-0.3,1-1.2,1c-1,0-1-1.1-1-2.1c0-0.4,0.1-1.9,0.1-2.6
						c0-1.6,0.1-2.7-2.4-4.3c-1.9-1.1-1.9-2.2-1.9-2.8c0-0.7,1.8-4.4,1.8-5.5c0-3.5-1.9-8.8-1.9-10.3c0-4.2,1.9-9.5,1.9-10.9
						c0-3-1.7-10.1-1.7-12c0-3.1,2.3-6.1,2.3-9.5c0-2.9-1.7-6.2-1.9-7.4c-0.1-1.5-1.4-4.4-1.4-5.6c0-1.4,0.6-3.7,0.6-5.3
						c0-0.4-0.4-1.5-0.4-2.2c0-1,1.1-1.7,2-1.7c1.1,0,4,1.6,4.9,1.6c1.1,0,3.2-0.5,4.3-0.5c2.4,0,5.9,0.5,8.3,0.5
						c-0.1,0-0.1,0-0.1,0c13.4,2.4,14.4,7.7,14.8,10.1c0.5,2.9,0.9,5.2,0.9,8.3c0,1.7-1.1,5-1.1,6.7c0,2.5-0.6,7-0.6,9.5
						c0,1.4,0.3,2,0.3,2.4c0,1.2-0.9,2.3-1.9,2.3c-0.9,0-2-2.2-2.9-2.2c-0.3,0-0.5,0.3-0.5,0.5c0,1.5,1.6,2.8,1.6,4.3
						c0,0.8-0.5,1.6-0.5,2.7c0,0.8,0.2,1.7,0.6,2.6c1.1,2.6,1.4,2.9,1.8,4.3c0.6,2.2,0.2,6.8,0.9,8.4c0.6,1.7,3.8,5.6,3.8,7.8
						C278.1,200.8,272.3,200.5,272.3,203.7z M262.8,148.2c0-1.5,0.3-1.9,0.3-2.6c0-2.8-1.4-5-4.2-5c-1.2,0-1.8,1.8-1.8,3.3
						c0,0.4,0.1,1.5,0.1,1.8c0,0.8-0.2,1.1-0.6,1.1c-1.6,0-0.9-3.6-2.4-3.6c-0.3,0-0.5,0.4-0.5,1.4s0.7,7.1,0.7,8
						c0,1.2-0.5,2-0.5,3.1c0,0.7,0.5,1.4,1.2,1.4c0.8,0,1.2-0.4,1.8-0.4c1,0,1.9,3,3.5,3c1.9,0,3-2.9,3-6.8
						C263.5,149.5,262.8,149.2,262.8,148.2z"/>
				</g>
			</g>
			<g id="Wicked_Weather-2">
				<g class="st0">
					<path class="st2" d="M74.7,19.9c0,3.6-3,9.6-3,23.5c0,5.2,0.5,6.1,0.5,8c0,3.8-1.8,8.7-1.8,12.6c0,2.8,1.4,5.9,1.4,7.1
						c0,1.9-0.5,2.5-1.5,2.5C69.4,73.6,69,73,69,72c0-1.1,0.3-2.3,0.3-3.4c0-2.1-0.9-3.1-2.1-3.1c-1.6,0-2.1,1.1-2.1,3.2
						c0,1.9,1.8,3.8,1.8,5.3c0,2-1.6,0.7-2.3,7.3c-0.1,1.1-1.6,4.6-1.6,6.9c0,1.6,1.4,5.4,1.4,7.2c0,4.9-0.3,6.9-2,6.9
						c-1.2,0-2.5-1.2-2.5-3.5c0-1.9,0.7-5.1,0.7-7.5c0-1.9-0.5-3.3-2.6-3.3c-1.6,0-0.5,5.3-3.1,5.3c-1.5,0-2.3-3.1-2.3-6.5
						c0-2.6,0.3-5.5,0.3-6.6c0-3.9-0.4-5.3-1.4-5.3c-0.5,0-1.6,1-2.2,1c-0.5,0-0.8-0.7-0.8-2c0-3,0.9-6,0.9-9.4
						c0-1.6-0.4-2.8-0.4-7.6c0-3.2-0.4-4.7-1.6-4.7c-3,0-3.1,5.3-3.1,8.8c0,3.3,0.2,4.3,0.2,6.2c0,2.7-1.2,9-1.2,11.5
						c0,3.2,1.9,6.1,1.9,8c0,4.1-0.7,5.6-2.7,5.6c-1.3,0-2.4-3.7-3.9-3.7c-1.1,0-1.6,0.5-1.6,1.5c0,1.3,0.9,3.7,0.9,5.8
						c0,1.6-0.5,2.4-1.1,2.4c-1.8,0-0.4-10.4-3.7-10.5c-0.8,0-2.3,1.4-3.6,1.4c-0.8,0-1.3-0.4-1.3-1.2c0-1.4,2.8-6.8,2.8-10
						c0-1.6-1.2-3.1-2.4-3.1c-2.3,0-3.4,2.3-4.9,2.3c-0.9,0-1.4-0.5-1.4-1.3c0-7.2,2.6-11.8,2.6-30.8c0-6.3-1.1-10.7-3.6-17
						c-0.9-2.2-0.9-8.7-0.9-10.2c0-2.2,2.5-2.7,5.1-2.7c5.6,0,7.4,2.3,7.4,5.9c0,13.2-1,17.6-1,21.3c0,2.2,1.3,7.6,5,7.6
						c1,0,1.5-0.9,1.5-3.5c0-0.7-0.2-1.4-0.2-2.6c0-4.3,2.3-5.7,2.3-12.8c0-4-1.6-9.9-1.6-11.5c0-2.3,1-5,3.7-5c2.1,0,4.4,2,6.2,2
						c1.4,0,2.6-1,3.7-1c2,0,2.5,0.7,2.5,2.8c0,1.2-0.8,3.5-0.8,4.7c0,2.7,1,6.9,1,9.7c0,2.1-0.3,3.7-0.3,5.1c0,3.6,0.5,5.4,2.6,5.4
						c3.7,0,2.6-7.2,3.4-20.5c0.2-3.7,0.9-5.3,6-5.3c2.3,0,3.8-0.5,5-0.5C73.8,16.8,74.7,17.9,74.7,19.9z"/>
					<path class="st2" d="M91.7,43.7c-0.7,0-1.9,0.2-1.9,1.8c0,1.8,0.8,3.6,0.8,5.5c0,4.9-0.6,7-0.6,7.6c0,1.6,1.5,6.1,1.5,8.9
						c0,1.6-0.9,4.4-0.9,7.2c0,1.1,0.1,3,0.1,3.7c0,1.8-0.5,4.1-0.5,5.2c0,0.7,1.3,3,1.3,3.5c0,2.5-4.5,0.5-4.5,2.4
						c0,1.1,0.6,4.9,0.6,5.8c0,1.1-0.5,3.7-2.1,3.7c-0.5,0-0.7-0.9-0.7-2.7c0-1,0.1-3.9,0.1-4.9c0-1.6-0.1-2.5-0.6-2.5
						c-1.6,0-1.1,5.4-2.8,5.4c-0.6,0-1-0.3-1-1.2c0-1.6,0.2-3.3,0.2-3.6c0-0.6-0.4-1-1.6-2.6c-1.8-2.3-2-3.5-2-5.1
						c0-0.2,1.1-4.3,1.1-8.2c0-4.3,1-7.2,1-8.7c0-2.1-2.2-2.4-2.2-5.5c0-3.3,2.6-6.3,2.6-10c0-5-0.6-8.4-0.6-9.1
						c0-0.7,0.5-3.7,0.5-4.7c-0.2-0.7-0.1-1.5-1.5-3.7c-0.9-1.3-1-1.1-1-2.5s1.5-4.4,1.5-5.9c-0.3-1.9-0.7-3.2-0.7-4.4
						c0-1.3,0.9-2.2,2.3-2.2c0.8,0,3,0.9,4.2,0.9c1,0,2.1-0.7,3.1-0.7c1.9,0,5.4,1.5,5.4,4.8c0,2.5-1.6,4.9-1.6,7.2
						c0,3,2.1,10.6,2.1,13.6c0,0.8-0.2,1.2-0.5,1.2S92,43.7,91.7,43.7z"/>
					<path class="st2" d="M125.5,18.7c3.9,1.2,7.7,8.8,7.7,13.9c0,1.4-0.6,4.8-0.6,6.5c0,2.3,0.5,2.9,0.5,3.9c0,0.9-0.4,2-1.4,2
						c-0.7,0-1.9-2.7-2.2-2.7c-0.4,0-1,0.7-1.3,0.7c-0.5,0-1.4-1.5-1.9-1.5c-2.4,0-0.1,5.6-2.5,5.6c-1.6,0-0.8-2.1-1.5-3.4
						c-0.8-1.5-2-1.9-2-5.5c0-0.5,0.1-1.1,0.1-2.2c0-4.8-0.2-8.1-1.4-8.1c-0.8,0-1.5,2-1.5,4.5c0,1.3,0.7,3.6,0.7,5.2
						c0,1.1-0.3,2.1-1.3,2.1c-1.5,0-1.8-3.9-1.8-4.7c0-1.1,0.2-2.5,0.2-3.5c0-1.2-0.2-2.1-1.1-2.1c-0.8,0-1.5,0.8-1.5,1.6
						c0,1.5,1.6,3.4,1.6,4.2c0,1-0.6,1.9-1.3,1.9c-0.7,0-1-0.4-1.8-0.4c-0.7,0-0.7,0.9-0.7,1.4c0,3.2,1,3,1,4.7
						c0,2.3-1.5,5.7-1.5,7.6c0,1,0.4,2.1,2,4.1c0.7,1,1.1,2.3,1.1,3.7c0,3.5,0.4,5,0.4,5.5c0,0.8-0.5,2.2-2.2,2.8
						c-1.2,0.4-1.4,0.9-1.4,1.4c0,0.7,1.4,1.9,1.4,2.9c0,0.4-0.2,0.8-0.6,1.2c-0.6,1.1-0.6,2.3-0.6,3.5c0,1.9,1,2.6,2.2,2.6
						c0.4,0,1.9-0.4,2.5-0.4c0.7,0,1.6,0.8,2.4,0.8c3.8-0.2,4.6-9.2,4.6-12.9c0-1.4-0.2-2.1-0.2-3s0.3-1.5,0.9-1.5
						c0.9,0,1.9,1,2.6,1c0.8,0,1.3-0.8,2.1-0.8c0.8,0,1.4,0.6,2.4,0.6c0.7,0,1.5-0.8,2-0.8c1.8,0.2,2.6,1.8,2.6,3.6
						c0,2.7-2.2,5.2-2.2,8.3c0,1,0.2,2.3,0.2,3.9c0,3.2-1.9,5.3-6.4,9.5c-0.9,0.9-3.6,1.8-4.6,3.3c-0.5,0.4-0.7,3.5-1.6,3.5
						c-0.8,0-2.4-4-3.5-4c-2.3,0-0.4,5.1-3.1,5.1c-1.4,0-0.3-6.5-2.7-6.5c-1.5,0-0.2,3.4-1.6,3.4c-1.1,0-1.1-4.3-2.6-4.8
						c-0.5-0.2-1.1-0.3-1.5-0.7c-1.4-1.2-1.9-5.6-2.5-5.6c-0.3,0-0.2,1.1-0.8,1.1c-0.6,0-0.9-0.8-0.9-3c0-1.4,0.5-2,0.5-3
						c0-1.2-0.9-1-0.9-2.1s0.6-2.5,0.6-2.9c0-0.7,0-1.2-0.3-1.2c-0.4,0-0.5,0.6-0.9,0.6s-0.5-0.3-0.5-0.7c0-2.4,1.2-3.7,1.2-9.2
						c0-7.2-0.6-16.8-0.6-26.7c0-7.3,2-11.8,5.9-13.6c6.5-2.8,7.8-4.7,9.2-4.7C116.1,14.9,122,17.2,125.5,18.7z"/>
					<path class="st2" d="M148,17.6c1,0,2.8-0.8,3.7-0.8c1,0,1.9,0.4,1.9,1.9c0,0.5-0.2,2.3-0.2,2.6c0,4.2,1,4.5,1,7.1
						c0,1.6-2.5,1.8-2.5,3.2c0,1.5,0.7,3.3,0.7,3.6c0,1-0.5,3-0.5,3.7c0,1,0.5,2.4,2,2.4c1.1,0,0.6-3.9,3-9.4
						c2.3-5.1,1.6-5.5,3.7-7.7c2-2.2,3.2-3.9,3.5-4.7c0.8-2.3,2.1-2.5,2.7-2.5c0.7,0,2.3,0.3,3.1,0.3c1.2,0,2.4-0.9,3.5-0.9
						c0.8,0,1.2,0.7,1.2,1.4c0,1.3-2.2,10.4-2.2,12.8c0,1.4,0.7,3.4,0.7,5.5c0,1.9-0.5,2.3-1.2,2.3c-0.9,0-1.3-0.9-1.3-1.5
						c0-2,0.2-3.6,0.2-4.3s-0.1-1.8-0.9-1.8c-1.1,0-2.1,2.4-2.1,3.9s0.7,2.9,0.7,4.1c0,1-0.3,1.6-1,1.6c-0.5,0-1.2-0.4-1.6-0.4
						c-1.3,0-1.8,1.8-1.8,2.9c0,1,1,3.5,1,4.9c0,0.9-0.2,2.7-0.2,3.7c0,1.5,0.4,3.2,1.2,4.8c2.8,6,1.3,5.5,4.1,14.1
						c-0.6-1.1,5.5,7.6,5.5,10.5c-0.1,0.2-0.1,0.4-0.1,0.7c0,0.8,0.4,2,0.5,3.6c-0.2,1.8-3.8,2.7-3.8,4.2c0,1,0.9,3.2,0.9,4.1
						c0,0.5-0.6,4.2-1.6,4.2c-1.3,0-1.6-2.6-1.6-4.1c0-0.4,0.2-1.8,0.2-2.3c0-0.7-0.4-1.3-1.2-1.3c-0.7,0-1.3,1.8-1.8,1.8
						c-0.9-0.1-0.8-2.4-1-2.8c-0.9-1-2.1-1.9-2.8-3c-1-1.5-0.9-4.7-1-5.9c-0.6-2.8-1.9-5.8-2.6-8.7c-1.1-3.9-3.5-7.8-3.5-12.5
						c0-2.6-0.5-2.9-0.9-2.9c-1.3,0-2.4,0.9-2.4,3c0,0.9,1.5,3.2,1.5,4.2c0,0.7,0,1.9-0.5,3.5c-1.4,4.6-2,7.6-2,13.8
						c0,1.6,1.1,3.2,1.1,4.7c0,0.9,0.1,1.6-2.6,3.6c-1.5,1.1-1.8,2-1.8,2.8c0,0.6,0.4,2.1,0.4,2.7c0,3.1-0.7,4.3-1.6,4.3
						c-1.6,0-1.5-8.9-2.6-8.9c-1.2,0-0.4,3.5-2.3,3.5c-2-0.5-2.8-11.3-2.8-13c0-1.9,0.5-3.1,0.5-4.3c0-2.3-2.6-3.6-2.6-4.8
						c0-3.1,2.7-2,2.7-10.5c0-2-0.2-3.5-0.2-4.2c0-2.6,0.8-3.2,0.8-9.6c0-2.3-1-5.1-1-7.9c0-2.5,0.7-4.8,0.7-6.7
						c0-2.8-0.6-7.7-0.6-11.1c0-3.7,1.1-4.2,3.6-4.2C145.3,16.9,146.7,17.6,148,17.6z"/>
					<path class="st2" d="M209.8,83.5c0,0.5,0.2,1.8,0.2,3.3c0,1.2-0.5,1.8-1.5,1.8c-0.7,0-3.9-1-5.1-1s-2.2,0.9-2.2,2.2
						c0.3,1.8,1.1,2.3,1.1,4.9c0,0.8-0.1,1.1-1,1.1c-1.5,0.1-2.7-7.6-4.5-7.6c-1.5,0-2.6,2-2.6,2.7c0,0.8,0.6,1.4,0.6,2.2
						c0,2-0.6,2.3-1.4,2.3c-3.2,0-2.6-6.4-4.3-6.4c-0.3,0-1,1.5-2,1.5c-0.7,0-2.3-1.5-3-1.5c-0.4,0-1.2,0.6-1.6,0.6
						c-1.9,0-1.2-3.7-1.4-4.5v-2c0-0.5,0.1-1.9,0.1-2.6v-2.3c0-3.3,0.7-10.7,0.7-13.9c0-2.5,1.3-6,1.3-6.5c0-0.9-0.4-1.4-1.5-1.4
						c-0.4,0-1,0.3-1.4,0.3c-0.8,0-0.9-1.1-0.9-1.8c0-0.5,0-1,0.4-2c1.2-2.2,1.4-5.3,1.4-7.5c0-3.5,1.3-6.1,1.3-8.7
						c0-0.7-1-3.5-1-4.9c0-1,0.2-2.7,0.2-3.6c0-0.8-0.5-2.6-0.5-3.6c0-0.5,0.3-1.3,0.3-1.9c0-0.7-1-2-1-2.8c0-1.6,1.6-2.4,3.9-2.4
						c0.4,0,1.3,0.1,2.1,0.1c1.9,0,2.3-0.9,3.8-0.9c0.9,0,2,0.9,2.7,0.9s1-0.6,2.1-0.6c1.4,0,3.3,1.6,4.8,1.6c1,0,2.1-1.1,3.5-1.1
						c1,0,1.4,0.5,2.2,0.5c0.7,0,1.1-0.7,2.7-0.7c0.7,0,1.2,1.3,1.2,5.1c0,2.7,1.4,12.2,1.4,15.9c0,1.2-0.6,2-2.1,2
						c-0.9,0-1.4-0.5-1.4-1.5c0-0.8,0.2-3.6,0.2-3.9c0-3.6-0.3-6.7-0.9-6.7c-1.9,0-0.1,6.8-2.2,6.8c-0.6,0-1-0.3-1.1-0.8
						c-0.5-2.4-0.7-3.2-1-3.7c-1.3-0.9-2.6-1.9-3.8-1.9c-2.3,0-2.5,2.6-3.6,2.6c-0.6,0-0.9-0.2-1.3-0.2c-2.3,0-2.8,2.4-2.8,5.6
						c0,6.1,3.9,9.6,5.5,9.6c0.3,0,3.5-0.7,3.9-0.7c1.5-0.3,3.8-0.3,4.3-0.3c1,0,1.8,1.1,1.8,2.6c0,0.7-0.9,2.6-0.9,3.6
						c0,2.2,2,7.5,2,9.1c0,1.9-1.5,4.4-2.5,4.4c-2.1,0-0.5-5.7-3.1-5.7c-2.2,0-0.4,3.8-2.2,3.8c-1.2,0-1.6-3.4-2.8-3.4
						c-0.7,0-1.4-0.4-2.2-0.4c-0.9,0-1.3,0.2-1.3,1s0.7,1.9,0.7,6.6c0,1.5-1.4,4.3-1.4,5.5c0,1.6,1.4,3.8,5.9,3.8
						c0.6,0,1.4-0.1,2.4-0.1c1.4,0,4.1,0.8,5.5,0.8c0.4,0,0.9-0.1,1.4-0.1c1.5,0,3.2,1.6,3.2,3.2C210.7,80.9,209.8,82.5,209.8,83.5z
						"/>
					<path class="st2" d="M250.2,69.7c0,2.3,0.9,3.4,0.9,4.5c0,2.1-2.3,2.2-2.3,3.5c0,2.6,0.6,1.9,0.6,4.3c0,0.9-2.6,2.5-2.6,4.5
						c0,0.6,0.1,1.2,0.1,2.5c0,1-0.4,1.5-1.2,1.5c-1.1,0-3.1-2.7-4-2.7c-1.2,0-1.6,1.6-1.6,3.1c0,1,0.2,1.9,0.2,2.5
						c0,0.5-0.2,0.8-0.7,0.8c-1.3,0-2.4-5.9-4.9-5.9c-1.6,0-1.8,1.3-2.8,1.3c-1.6,0-2.6-2.9-8-2.9c-2,0-2.5,2.4-2.5,3.1
						c0,0.8,1.5,2.9,1.5,4c0,1-0.4,1.6-1.8,1.6c-0.5,0-1.5-0.4-1.5-1.9c0-1.1,0.4-2.7,0.4-3.4c0-0.3,0-2.3-1.2-2.3
						c-0.4,0-0.6,0.5-1.3,0.5c-0.6,0-0.8-0.7-0.8-1.2c0-1.2,0.8-1.9,0.8-3.9c0-5.7-0.5-6.9-0.5-8.5c0-2.4,0.6-5.2,0.6-6.2
						s-0.2-1.3-1.3-3.5c-0.3-0.5-0.5-1-0.5-1.5c0-2,1.1-5.5,1.1-7.4c0-4.7,1.2-8.7,1.2-12.9c0-1.4-0.8-3.5-0.8-3.9
						c0-3.5,1.4-6.4,1.4-6.9c0-2.4-3.6-3.2-3.6-5.7c0-3.8-0.3-3.8-0.3-5.5c0-2.2,0.7-3.8,3.4-3.8c0.4,0,2.1,0.2,2.4,0.2
						c1.4,0,3.7-0.9,4.2-0.9c1.1,0,2.8,1.4,3.9,1.5c1.1,0,3.1-1.1,4.1-1.1c2.2,0.1,3.4,1.2,5.7,1.4c5.7,0.4,10.1,6,11.7,14.7
						c0,0.7,0.1,1.5,0.1,2.2c0,4.9-1.9,3.5-1.9,5c0,3.4,3,8.7,3,11.2c0,7.2-0.6,11-0.6,11.9C250.8,65.5,250.2,66.9,250.2,69.7z
						 M239.3,58.9c0-4.4,0.5-9.2,0.5-13.9c0-2-0.4-3.3-2-3.3c-1.8,0-1.5,3.8-3.1,3.8c-0.5,0-0.8-0.5-0.8-1.6c0-3,0.6-5.9,0.6-6.4
						c0-2,0.1-3,0.1-3.9c0-1.3-0.1-2.2-1.5-2.2c-0.5,0-0.7,0.3-0.7,1.1c0,1,0.6,3.1,0.6,3.9c0,0.5-0.2,0.7-0.5,0.7
						c-1.6,0-2.4-1.3-2.4-3.1c0-0.7,0.5-2.5,0.5-3.2c0-1.2-0.8-2.7-1.5-2.7c-0.8,0-0.9,2.2-0.9,2.8c0,0.1,0.5,3,0.5,3.5
						c0,1.3-0.9,2.5-0.9,4.5c0,3,2.2,5.8,2.2,8c0,4.6-1.5,5.4-1.5,10.3c0,1.9,0.1,3.2,0.7,4.8c0.5,1.2,1.5,2.4,1.5,3.9
						c0,0.6-0.2,0.9-0.7,0.9c-0.1,0-1.2-0.3-1.4-0.3c-0.9,0-1.2,0.8-1.2,1.3c0,1.2,0.9,7.8,3.7,7.8c1,0,2,0.1,2.9,0.1
						c3.1,0,5.5-1.2,5.5-12.6v-2.6v-1.6H239.3z"/>
				</g>
				<g class="st0">
					<path class="st2" d="M54.4,129.9c0,3.6-3,9.6-3,23.5c0,5.2,0.5,6.1,0.5,8c0,3.8-1.8,8.7-1.8,12.6c0,2.8,1.4,5.9,1.4,7.1
						c0,1.9-0.5,2.5-1.5,2.5c-0.9,0-1.3-0.6-1.3-1.6c0-1.1,0.3-2.3,0.3-3.4c0-2.1-0.9-3.1-2.1-3.1c-1.6,0-2.1,1.1-2.1,3.2
						c0,1.9,1.8,3.8,1.8,5.3c0,2-1.6,0.7-2.3,7.3c-0.1,1.1-1.6,4.6-1.6,6.9c0,1.6,1.4,5.4,1.4,7.2c0,4.9-0.3,6.9-2,6.9
						c-1.2,0-2.5-1.2-2.5-3.5c0-1.9,0.7-5.1,0.7-7.5c0-1.9-0.5-3.3-2.6-3.3c-1.6,0-0.5,5.3-3.1,5.3c-1.5,0-2.3-3.1-2.3-6.5
						c0-2.6,0.3-5.5,0.3-6.6c0-3.9-0.4-5.3-1.4-5.3c-0.5,0-1.6,1-2.2,1c-0.5,0-0.8-0.7-0.8-2c0-3,0.9-6,0.9-9.4
						c0-1.6-0.4-2.8-0.4-7.6c0-3.2-0.4-4.7-1.6-4.7c-3,0-3.1,5.3-3.1,8.8c0,3.3,0.2,4.3,0.2,6.2c0,2.7-1.2,9-1.2,11.5
						c0,3.2,1.9,6.1,1.9,8c0,4.1-0.7,5.6-2.7,5.6c-1.3,0-2.4-3.7-3.9-3.7c-1.1,0-1.6,0.5-1.6,1.5c0,1.3,0.9,3.7,0.9,5.8
						c0,1.6-0.5,2.4-1.1,2.4c-1.8,0-0.4-10.4-3.7-10.5c-0.8,0-2.3,1.4-3.6,1.4c-0.8,0-1.3-0.4-1.3-1.2c0-1.4,2.8-6.8,2.8-10
						c0-1.6-1.2-3.1-2.4-3.1c-2.3,0-3.4,2.3-4.9,2.3c-0.9,0-1.4-0.5-1.4-1.3c0-7.2,2.6-11.8,2.6-30.8c0-6.3-1.1-10.7-3.6-17
						c-1-2.3-1-8.8-1-10.3c0-2.2,2.5-2.7,5.1-2.7c5.6,0,7.4,2.3,7.4,5.9c0,13.2-1,17.6-1,21.3c0,2.2,1.3,7.6,5,7.6
						c1,0,1.5-0.9,1.5-3.5c0-0.7-0.2-1.4-0.2-2.6c0-4.3,2.3-5.7,2.3-12.8c0-4-1.6-9.9-1.6-11.5c0-2.3,1-5,3.7-5c2.1,0,4.4,2,6.2,2
						c1.4,0,2.6-1,3.7-1c2,0,2.5,0.7,2.5,2.8c0,1.2-0.8,3.5-0.8,4.7c0,2.7,1,6.9,1,9.7c0,2.1-0.3,3.7-0.3,5.1c0,3.6,0.5,5.4,2.6,5.4
						c3.7,0,2.6-7.2,3.4-20.5c0.2-3.7,0.9-5.3,6-5.3c2.3,0,3.8-0.5,5-0.5C53.5,126.8,54.4,127.9,54.4,129.9z"/>
					<path class="st2" d="M87.4,193.5c0,0.5,0.2,1.8,0.2,3.3c0,1.2-0.5,1.8-1.5,1.8c-0.7,0-3.9-1-5.1-1s-2.2,0.9-2.2,2.2
						c0.3,1.8,1.1,2.3,1.1,4.9c0,0.8-0.1,1.1-1,1.1c-1.5,0.1-2.7-7.6-4.5-7.6c-1.5,0-2.6,2-2.6,2.7c0,0.8,0.6,1.4,0.6,2.2
						c0,2-0.6,2.3-1.4,2.3c-3.2,0-2.6-6.4-4.3-6.4c-0.3,0-1,1.5-2,1.5c-0.7,0-2.3-1.5-3-1.5c-0.4,0-1.2,0.6-1.6,0.6
						c-1.9,0-1.2-3.7-1.4-4.5v-2c0-0.5,0.1-1.9,0.1-2.6v-2.3c0-3.3,0.7-10.7,0.7-13.9c0-2.5,1.3-6,1.3-6.5c0-0.9-0.4-1.4-1.5-1.4
						c-0.4,0-1,0.3-1.4,0.3c-0.8,0-0.9-1.1-0.9-1.8c0-0.5,0-1,0.4-2c1.2-2.2,1.4-5.3,1.4-7.5c0-3.5,1.3-6.1,1.3-8.7
						c0-0.7-1-3.5-1-4.9c0-1,0.2-2.7,0.2-3.6c0-0.8-0.5-2.6-0.5-3.6c0-0.5,0.3-1.3,0.3-1.9c0-0.7-1-2-1-2.8c0-1.6,1.6-2.4,3.9-2.4
						c0.4,0,1.3,0.1,2.1,0.1c1.9,0,2.3-0.9,3.8-0.9c0.9,0,2,0.9,2.7,0.9s1-0.6,2.1-0.6c1.4,0,3.3,1.6,4.8,1.6c1,0,2.1-1.1,3.5-1.1
						c1,0,1.4,0.5,2.2,0.5c0.7,0,1.1-0.7,2.7-0.7c0.7,0,1.2,1.3,1.2,5.1c0,2.7,1.4,12.2,1.4,15.9c0,1.2-0.6,2-2.1,2
						c-0.9,0-1.4-0.5-1.4-1.5c0-0.8,0.2-3.6,0.2-3.9c0-3.6-0.3-6.7-0.9-6.7c-1.9,0-0.1,6.8-2.2,6.8c-0.6,0-1-0.3-1.1-0.8
						c-0.5-2.4-0.7-3.2-1-3.7c-1.3-0.9-2.6-1.9-3.8-1.9c-2.3,0-2.5,2.6-3.6,2.6c-0.6,0-0.9-0.2-1.3-0.2c-2.3,0-2.8,2.4-2.8,5.6
						c0,6.1,3.9,9.6,5.5,9.6c0.3,0,3.5-0.7,3.9-0.7c1.5-0.3,3.8-0.3,4.3-0.3c1,0,1.8,1.1,1.8,2.6c0,0.7-0.9,2.6-0.9,3.6
						c0,2.2,2,7.5,2,9.1c0,1.9-1.5,4.4-2.5,4.4c-2.1,0-0.5-5.7-3.1-5.7c-2.2,0-0.4,3.8-2.2,3.8c-1.2,0-1.6-3.4-2.8-3.4
						c-0.7,0-1.4-0.4-2.2-0.4c-0.9,0-1.3,0.2-1.3,1s0.7,1.9,0.7,6.6c0,1.5-1.4,4.3-1.4,5.5c0,1.6,1.4,3.8,5.9,3.8
						c0.6,0,1.4-0.1,2.4-0.1c1.4,0,4.1,0.8,5.5,0.8c0.4,0,0.9-0.1,1.4-0.1c1.5,0,3.2,1.6,3.2,3.2C88.4,190.9,87.4,192.5,87.4,193.5z
						"/>
				</g>
				<g class="st0">
					<path class="st2" d="M108.1,127.7c2.9,0,4.2-1.3,6-1.3c1.9,0,1.6,1,2.5,4.2l0.9,3.4c0.3,1.3,0.6,2.9,0.7,4c0,0.9-0.4,2.9-0.4,4
						c0,2.6,0.2,5.2,0.6,7.5c0,0.4,3.3,10.7,3.3,17.3c0,5.8,2.3,7.7,2.3,11.9c0,1.5,0.2,4.4,1.4,8.7c2.1,7.6,2.4,8.8,2.4,11.7
						s-0.9,4.2-2.6,4.2c-1.2,0-1.6-0.6-1.6-1.8c0-0.7,0.2-1.6,0.2-2.3c0-0.9-0.3-1.2-0.9-1.2c-1.8,0-0.7,4.5-2.3,4.5
						c-1.4,0-1.3-4.6-2.5-4.6c-0.4,0.1-0.6,0.6-0.6,1.9c0,0.7,0.3,2.3,0.3,3.4c0,1.3-0.6,2-1.2,2c-2,0-1.9-5.5-2-9
						c-0.1-2.4-1.2-5.1-1.2-8.2c0-3.3-0.5-5.8-2.1-5.8c-1.4,0-1.1,4.6-2.9,4.6c-1.3,0-3.2-3.7-4-3.7c-0.4,0-0.7,0.5-0.7,1.2
						c0,1.4,0.6,1.5,0.6,3c0,0.8-2.1,1.3-2.1,2.7c0,0.8,0.7,2.2,0.7,3.4c0,3.6-3.9,0.2-3.9,6.6c0,1.6,0,3.3-1.4,3.3
						c-2.7,0-1-5.3-3.1-5.3c-0.8,0-1.9,2.6-2.7,2.6c-0.7,0-1.1-0.4-1.1-1.2c0-1.9,0.7-2.5,0.7-7.4c0-2.6-0.1-5.7,0.3-7.5l0.9-4.5
						l2.3-9.4c0.3-1.1,0.4-2,0.4-2.5c0-0.6-0.5-0.8-0.5-1.8s0.4-2.6,1-4.5c1.2-4.2,0.5-5.4,2.5-16c1.2-6.8,0.7-19.8,4.3-19.8
						C103.9,126.4,106.1,127.7,108.1,127.7z M105.2,165.8c0,1.4,0.6,2.1,0.7,2.8c0,0.4-0.7,1-0.7,2.6c0,0.8,1.1,1.2,3.2,1.2
						c2.4,0,3.1-0.6,3.1-1.3s-0.4-1.9-0.4-3.3c0-6.9-0.4-7.6-0.8-7.6c-1,0-0.4,3.6-1.8,3.6s-0.3-5-1.4-5
						C105.8,158.7,105.2,163.3,105.2,165.8z"/>
				</g>
				<g class="st0">
					<path class="st2" d="M157.7,134c0,1.6-1.5,5.8-1.5,7.8c0,2.3,0.4,2.7,0.4,3.4c0,1.2-0.3,1.8-1.2,1.8c-2.7,0-1.2-6.9-2.6-6.9
						c-1.1,0-1.2,2.6-2.2,2.6c-1.3,0-1.9-2.3-3.6-2.3c-2.3,0-2.9,1.5-2.9,5.7c0,1,0.4,2.6,0.4,3.3c0,3.1-0.6,5.4-0.6,7.1
						c0,5.3,2.1,6.4,2.1,13.5c0,5.3-1.9,7.8-1.9,11.9c0,3,0.9,4.3,0.9,6.5c0,0.7-0.3,1.8-0.3,2.4c0,1.1,1.2,3.3,1.2,4.5
						c-0.3,3-5.5,1.5-5.5,7.7c0,2.9,1.2,4.9,1.2,8.3c0,1.1-1,2.1-3,2.1c-1.6,0-2.5-0.6-2.5-2c0-1.9,1-3.5,1-5.3c0-3.5,0-8.5-1.9-8.5
						c-0.9,0-0.8,1.8-1.9,1.8c-1.5,0-2.4-7.1-2.4-9.4c0-6.3,2.7-15.1,2.7-17.5c0-4.6-0.5-5.4-0.5-6.9c0-2.3,0.7-9.8,1.2-14.3
						c0.4-3.6,1.3-8,1.3-9.9c0-2.1-2-2.1-2.9-2.1c-2.9,0-2,6.8-4.7,6.8c-2.4,0-1.4-6.8-4.8-6.8c-1.1,0-2.5-0.8-2.5-2.1
						c0-0.8,1.4-2.7,1.4-3.9c0-1.1-0.9-4-0.9-4.8c0-0.9,0.5-1.2,1.3-1.2c1.8,0,3.3,1.5,5.1,1.5c3.9,0,6.1-2.2,8.7-2.2
						c4.6,0,5.6,1.3,10.5,1.3c3,0,4.9-1.4,6.4-1.4C156.5,126.6,157.7,131.5,157.7,134z"/>
					<path class="st2" d="M192.2,179.9c0,7.6,2.2,12.3,2.2,13.5c0,2.6-2.3,5.5-3.2,5.5c-0.4,0-1.5-0.3-1.9-0.3c-0.3,0-1.4,0-1.4,1.2
						c0,0.8,0.7,3.6,0.7,3.4c0,0.8-0.4,1.2-1.2,1.2c-0.3,0-0.5-0.5-0.5-1.6V201c0-2.1-0.5-2.9-1.4-2.9c-1.1,0-2.4,1.6-3.5,1.6
						c-0.6,0-1-0.7-1-2v-2.2c-0.1-1.1-0.8-7.2-0.8-8.1c0-0.5,0.2-2.1,0.2-2.4c0-0.4-0.1-0.7-0.1-1.4c0-2.1,2-5.6,2-7.9
						c0-1,0.6-5.1,0.6-6.5s-0.5-2.2-1.2-2.2c-0.6,0-2.6,2.8-3.3,2.8c-0.5,0-1.9-0.5-2.2-0.5c-0.4,0-1,0.5-1,1.3
						c0,0.1,0.4,0.9,0.4,2.7v1.3c0,0.6-0.3,1.5-0.9,1.5s-1.5-2.6-2.6-2.6c-0.3,0-0.6,0.3-0.6,0.8c0,0.9,1,4,1,5.4
						c0,1.6-0.6,4.8-0.6,5.8c0,1.1,0.6,2.3,0.6,4c0,0.4-0.1,0.6-0.1,1c0,2.4,1.1,4.7,1.1,4.8c0,1.1-1.1,2.9-1.9,2.9
						c-0.2,0-0.3-0.1-0.7-0.1c-1.4,0-3.7,0.4-4.2,2.5c0,0.8,1.2,2.2,1.2,2.9s-0.4,1.1-1.2,1.1c-0.7,0-1.4-0.7-1.4-1.5
						c0.1-1.2,0.3-2.2,0.3-2.9c0-1.5-0.5-2.3-1.4-2.3c-1.1,0-3,2.3-3.5,2.3c-0.4,0-0.8-0.3-0.8-0.9c-0.1-0.1,0.8-3.1,0.8-4.3
						c0-1-0.9-2.9-0.9-3.6c0-0.8,1.5-3.2,1.5-4c0-3.4-3-1.2-3-5.8c0-1.3,1.8-4.4,1.8-6v-3.9c0-5.6,2.1-12.1,2.1-12.9
						c0-2.3-1.3-6.1-2-6.1c-0.4,0-0.9,0.9-1.2,0.9c-0.5-0.1-0.7-0.6-0.7-1.5c0-2.3,2-9.8,2-14.2c0-2.7-0.2-4.4-0.2-6.2
						c0-2.3,1.8-5,4.8-5c0.5,0,1.9,0.3,2.7,0.3c0.5,0,0.9-0.2,1.6-0.2c2.5,0,2.7,3.8,2.7,6.3c0,7.2,2.4,8.5,2.4,11.2
						c0,1.9-2.5-0.4-2.5,4.8c0,3.3,1,5.8,3.2,5.8c0.5,0,1.2-0.3,1.9-0.3c1.3,0,3.7,0.8,3.6,0.8c0.5,0,0.8-0.4,0.9-1
						c0-0.2-0.7-2.8-0.7-3.8v-5.3c0-5.8-0.1-7.2-0.1-8c0-1.5,0.8-4.1,0.8-5c0-1.8-1.5-2.5-1.5-3.1c0-1.4,2.4-2.8,4.5-2.8
						c2.9,0,4.2,0.4,4.8,0.4c0.4,0,2.2-0.6,2.6-0.6c2.6,0.5,2.9,4.3,2.9,9.3c0,2-0.2,5.2-0.7,6.4l-0.9,2.1c-0.3,0.8-0.4,1.8-0.4,2.9
						c0,3.6,1.6,9.1,1.6,10.1v1.4c0,2.9,0.4,4.6,0.4,5c0,1.3-0.7,3.5-0.7,4.7s1.1,3.6,1.1,4.4c0,0.1-0.1,0.5-0.2,1
						C194.4,174.3,192.2,176.8,192.2,179.9z"/>
					<path class="st2" d="M231.4,193.5c0,0.5,0.2,1.8,0.2,3.3c0,1.2-0.5,1.8-1.5,1.8c-0.7,0-3.9-1-5.1-1s-2.2,0.9-2.2,2.2
						c0.3,1.8,1.1,2.3,1.1,4.9c0,0.8-0.1,1.1-1,1.1c-1.5,0.1-2.7-7.6-4.5-7.6c-1.5,0-2.6,2-2.6,2.7c0,0.8,0.6,1.4,0.6,2.2
						c0,2-0.6,2.3-1.4,2.3c-3.2,0-2.6-6.4-4.3-6.4c-0.3,0-1,1.5-2,1.5c-0.7,0-2.3-1.5-3-1.5c-0.4,0-1.2,0.6-1.6,0.6
						c-1.9,0-1.2-3.7-1.4-4.5v-2c0-0.5,0.1-1.9,0.1-2.6v-2.3c0-3.3,0.7-10.7,0.7-13.9c0-2.5,1.3-6,1.3-6.5c0-0.9-0.4-1.4-1.5-1.4
						c-0.4,0-1,0.3-1.4,0.3c-0.8,0-0.9-1.1-0.9-1.8c0-0.5,0-1,0.4-2c1.2-2.2,1.4-5.3,1.4-7.5c0-3.5,1.3-6.1,1.3-8.7
						c0-0.7-1-3.5-1-4.9c0-1,0.2-2.7,0.2-3.6c0-0.8-0.5-2.6-0.5-3.6c0-0.5,0.3-1.3,0.3-1.9c0-0.7-1-2-1-2.8c0-1.6,1.6-2.4,3.9-2.4
						c0.4,0,1.3,0.1,2.1,0.1c1.9,0,2.3-0.9,3.8-0.9c0.9,0,2,0.9,2.7,0.9s1-0.6,2.1-0.6c1.4,0,3.3,1.6,4.8,1.6c1,0,2.1-1.1,3.5-1.1
						c1,0,1.4,0.5,2.2,0.5c0.7,0,1.1-0.7,2.7-0.7c0.7,0,1.2,1.3,1.2,5.1c0,2.7,1.4,12.2,1.4,15.9c0,1.2-0.6,2-2.1,2
						c-0.9,0-1.4-0.5-1.4-1.5c0-0.8,0.2-3.6,0.2-3.9c0-3.6-0.3-6.7-0.9-6.7c-1.9,0-0.1,6.8-2.2,6.8c-0.6,0-1-0.3-1.1-0.8
						c-0.5-2.4-0.7-3.2-1-3.7c-1.3-0.9-2.6-1.9-3.8-1.9c-2.3,0-2.5,2.6-3.6,2.6c-0.6,0-0.9-0.2-1.3-0.2c-2.3,0-2.8,2.4-2.8,5.6
						c0,6.1,3.9,9.6,5.5,9.6c0.3,0,3.5-0.7,3.9-0.7c1.5-0.3,3.8-0.3,4.3-0.3c1,0,1.8,1.1,1.8,2.6c0,0.7-0.9,2.6-0.9,3.6
						c0,2.2,2,7.5,2,9.1c0,1.9-1.5,4.4-2.5,4.4c-2.1,0-0.5-5.7-3.1-5.7c-2.2,0-0.4,3.8-2.2,3.8c-1.2,0-1.6-3.4-2.8-3.4
						c-0.7,0-1.4-0.4-2.2-0.4c-0.9,0-1.3,0.2-1.3,1s0.7,1.9,0.7,6.6c0,1.5-1.4,4.3-1.4,5.5c0,1.6,1.4,3.8,5.9,3.8
						c0.6,0,1.4-0.1,2.4-0.1c1.4,0,4.1,0.8,5.5,0.8c0.4,0,0.9-0.1,1.4-0.1c1.5,0,3.2,1.6,3.2,3.2
						C232.4,190.9,231.4,192.5,231.4,193.5z"/>
					<path class="st2" d="M268,201.6c0,0.4,0.4,1.4,0.4,3.1c0,3.4-0.8,6.5-2,6.5c-0.7,0-0.9-0.6-0.9-1.6c0-1.6,0.2-3.1,0.2-3.7
						c0-2.2-0.5-7.1-1.5-7.1c-1.8,0-1.8,1.5-2.8,1.5c-0.4,0-0.9-0.2-0.9-0.8c0-0.5,0.6-2.5,0.6-4c0-1.8-0.4-3.4-1.2-5.3
						c-1.9-4-2.8-7.1-2.8-8.8c0-0.9,0.2-1.5,0.2-2.4c0-2.4-2.1-4.2-2.1-5.9c0-1.5,0.4-1.9,0.4-3.2c0-0.7-0.3-1.1-0.9-1.1
						c-1,0-2.2,0.4-2.2,2.8c0,1.6,0.3,2,0.3,2.6c0,0.5-0.4,0.6-0.6,0.6c-1.4-0.1-0.7-4.1-2.1-4.1c-0.4,0-0.6,0.6-0.6,1.9
						c0,0.9,0.5,6.1,0.5,6.7c0,1.2-0.7,6.7-0.7,10.4c0,2.7,1.1,5.5,1.1,8.5c0,3.7-0.1,4.8-1.1,4.8c-2.3,0-1-4.2-2.8-4.2
						c-1.2,0-2.6,1.6-2.6,3.1s0.6,4,0.6,4.4c0,0.6-0.3,1-1.2,1c-1,0-1-1.1-1-2.1c0-0.4,0.1-1.9,0.1-2.6c0-1.5,0.1-2.7-2.4-4.2
						c-1.9-1.1-1.9-2.2-1.9-2.8c0-0.7,1.8-4.3,1.8-5.5c0-3.5-1.9-8.8-1.9-10.2c0-4.1,1.9-9.4,1.9-10.8c0-3-1.6-10-1.6-11.8
						c0-3.1,2.3-6.1,2.3-9.4c0-2.9-1.6-6.2-1.9-7.3c-0.1-1.4-1.3-4.3-1.3-5.6s0.6-3.7,0.6-5.3c0-0.4-0.4-1.4-0.4-2.2
						c0-1,1.1-1.6,2-1.6c1.1,0,3.9,1.5,4.8,1.5c1.1,0,3.2-0.5,4.2-0.5c2.4,0,5.9,0.5,8.2,0.5c-0.1,0-0.1,0-0.1,0
						c13.3,2.4,14.2,7.6,14.6,10c0.5,2.9,0.9,5.1,0.9,8.2c0,1.6-1.1,4.9-1.1,6.6c0,2.5-0.6,6.9-0.6,9.4c0,1.3,0.3,2,0.3,2.4
						c0,1.2-0.9,2.3-1.9,2.3c-0.9,0-2-2.2-2.9-2.2c-0.3,0-0.5,0.3-0.5,0.5c0,1.4,1.5,2.8,1.5,4.2c0,0.8-0.5,1.5-0.5,2.7
						c0,0.8,0.2,1.6,0.6,2.6c1.1,2.6,1.3,2.9,1.8,4.2c0.6,2.2,0.2,6.7,0.9,8.3c0.6,1.6,3.8,5.6,3.8,7.7
						C273.8,198.8,268,198.5,268,201.6z M258.6,146.7c0-1.4,0.3-1.9,0.3-2.6c0-2.8-1.3-4.9-4.1-4.9c-1.2,0-1.8,1.8-1.8,3.3
						c0,0.4,0.1,1.4,0.1,1.8c0,0.8-0.2,1.1-0.6,1.1c-1.5,0-0.9-3.6-2.4-3.6c-0.3,0-0.5,0.4-0.5,1.3c0,0.9,0.7,7,0.7,7.9
						c0,1.2-0.5,2-0.5,3.1c0,0.7,0.5,1.3,1.2,1.3c0.8,0,1.2-0.4,1.8-0.4c1,0,1.9,3,3.5,3c1.9,0,3-2.9,3-6.7
						C259.4,148,258.6,147.6,258.6,146.7z"/>
				</g>
			</g>
		</g>
	</g>
</g>
<g class="st0">
	<path class="st3" d="M24.1,242.7l4.1,5.7h-1.9l-4-5.4l-1,5.4h-1.7l3.1-16.2h1.7l-1.9,10l5.7-4.4h2.2L24.1,242.7z"/>
	<path class="st3" d="M40.1,242.4l-1.2,6h-1.7l1.2-6.2c0.4-2-0.7-3.1-2.3-3.1c-1.4,0-2.7,0.9-3.2,2.6l-1.3,6.7H30l2.1-10.6h1.1
		l0.1,1.2c0.9-0.9,2.1-1.4,3.3-1.4C39,237.5,40.6,239.4,40.1,242.4z"/>
	<path class="st3" d="M42.1,244.2l0.5-2.5c0.5-2.7,2.2-4.1,4.9-4.1c3,0,4.6,1.8,4.1,4.5l-0.5,2.5c-0.5,2.7-2.2,4.2-4.9,4.2
		C43.2,248.6,41.6,246.8,42.1,244.2z M49.5,244.2l0.4-2.3c0.4-1.8-0.6-2.8-2.5-2.8c-1.8,0-2.8,0.9-3.2,2.8l-0.5,2.3
		c-0.4,1.8,0.6,2.8,2.5,2.8C48.1,247,49.1,246.1,49.5,244.2z"/>
	<path class="st3" d="M67.1,237.8l-4.7,10.6h-1.7l-0.9-7.3l-3.8,7.3h-1.7l-0.6-10.6h1.7l0.3,8.7l4-8.7h1.4l0.6,8.8l3.7-8.8H67.1z"/>
	<path class="st3" d="M86.1,237.8l-4.7,10.6h-1.7l-0.9-7.3l-3.8,7.3h-1.7l-0.6-10.6h1.7l0.3,8.7l4-8.7h1.4l0.6,8.8l3.7-8.8H86.1z"/>
	<path class="st3" d="M95.8,242.4l-1.2,6H93l1.2-6.2c0.4-2-0.7-3.1-2.3-3.1c-1.3,0-2.6,0.9-3.1,2.6l-1.3,6.7h-1.7l3.1-16.2h1.7
		l-1.3,6.4c0.8-0.7,1.9-1.1,3-1.1C94.8,237.5,96.4,239.4,95.8,242.4z"/>
	<path class="st3" d="M108.1,237.8l-2.1,10.6h-1.2l-0.1-1c-0.8,0.9-1.9,1.3-3.2,1.3c-2.6,0-4.2-1.7-3.7-4.6l0.5-2.4
		c0.5-2.7,2.2-4.2,4.7-4.2c1.4,0,2.6,0.5,3.3,1.5l0.6-1.2H108.1z M105.1,244.5l0.6-2.9c0.1-1.6-0.9-2.5-2.5-2.5
		c-1.8,0-2.8,1-3.2,2.9l-0.4,2.1c-0.4,1.8,0.7,2.9,2.5,2.9C103.6,247,104.7,246.2,105.1,244.5z"/>
	<path class="st3" d="M111.7,244.1c-0.4,2,0.2,2.7,1.7,2.7h0.9l-0.3,1.6h-1.1c-2.4,0-3.5-1.3-3-4l1-5h-1.4l0.3-1.6h1.4l0.6-3.1h1.7
		l-0.6,3.1h2.8l-0.3,1.6h-2.8L111.7,244.1z"/>
	<path class="st3" d="M123.8,244.1c-0.4,2,0.2,2.7,1.7,2.7h0.9l-0.3,1.6H125c-2.4,0-3.5-1.3-3-4l1-5h-1.4l0.3-1.6h1.4l0.6-3.1h1.7
		l-0.6,3.1h2.8l-0.3,1.6h-2.8L123.8,244.1z"/>
	<path class="st3" d="M138,242.4l-1.2,6h-1.7l1.2-6.2c0.4-2-0.7-3.1-2.3-3.1c-1.3,0-2.6,0.9-3.1,2.6l-1.3,6.7h-1.7l3.1-16.2h1.7
		l-1.3,6.4c0.8-0.7,1.9-1.1,3-1.1C137,237.5,138.6,239.4,138,242.4z"/>
	<path class="st3" d="M141.7,237.8h1.7l-2.1,10.6h-1.7L141.7,237.8z M142.4,234h1.8l-0.4,2.1H142L142.4,234z"/>
	<path class="st3" d="M144.2,244.9h1.6c-0.3,1.5,0.7,2.3,2.5,2.3c1.5,0,2.4-0.8,2.4-1.8c0-2.5-5.5-1-5.5-4.5c0-2.1,1.8-3.3,4.2-3.3
		c2.6,0,4.3,1.4,3.8,3.7h-1.7c0.3-1.5-0.6-2.2-2.2-2.2c-1.5,0-2.5,0.7-2.5,1.7c0,2.3,5.5,0.9,5.5,4.5c0,2-1.7,3.4-4.2,3.4
		C145.6,248.6,143.7,247.2,144.2,244.9z"/>
	<path class="st3" d="M173.7,237.8l-4.7,10.6h-1.7l-0.9-7.3l-3.8,7.3h-1.7l-0.6-10.6h1.7l0.3,8.7l4-8.7h1.4l0.6,8.8l3.7-8.8H173.7z"
		/>
	<path class="st3" d="M183.9,237.8l-2.1,10.6h-1.2l-0.1-1c-0.8,0.9-1.9,1.3-3.2,1.3c-2.6,0-4.2-1.7-3.7-4.6l0.5-2.4
		c0.5-2.7,2.2-4.2,4.7-4.2c1.4,0,2.6,0.5,3.3,1.5l0.6-1.2H183.9z M180.9,244.5l0.6-2.9c0.1-1.6-0.9-2.5-2.5-2.5
		c-1.8,0-2.8,1-3.2,2.9l-0.4,2.1c-0.4,1.8,0.7,2.9,2.5,2.9C179.4,247,180.5,246.2,180.9,244.5z"/>
	<path class="st3" d="M195.2,237.8l-2.3,11.8c-0.5,2.5-2.3,3.9-4.8,3.9c-2.2,0-3.8-1.2-3.6-3.2h1.7c-0.1,0.9,0.9,1.6,2.1,1.6
		c1.6,0,2.6-1,3-2.7l0.3-1.6c-0.8,0.7-1.8,1.1-2.9,1.1c-2.3,0-3.9-1.8-3.3-4.8l1.2-6h1.7l-1.2,6.2c-0.4,2,0.6,3.2,2.1,3.2
		c1.3,0,2.5-0.9,3-2.5l1.3-6.8H195.2z"/>
	<path class="st3" d="M201.6,244.1l0.5-2.4c0.5-2.7,2.3-4.2,4.9-4.2c2.9,0,4.4,1.9,3.9,4l-0.1,0.3h-1.7l0.1-0.4
		c0.3-1.5-0.7-2.4-2.4-2.4s-2.8,1-3.1,2.9l-0.4,2.2c-0.4,1.8,0.7,2.9,2.4,2.9c1.6,0,2.6-0.8,2.9-2.4l0.1-0.4h1.7l-0.1,0.6
		c-0.5,2.4-2.1,3.7-4.6,3.7C202.7,248.6,201.1,246.8,201.6,244.1z"/>
	<path class="st3" d="M212.4,244.2l0.5-2.5c0.5-2.7,2.2-4.1,4.9-4.1c3,0,4.6,1.8,4.1,4.5l-0.5,2.5c-0.5,2.7-2.2,4.2-4.9,4.2
		C213.5,248.6,211.9,246.8,212.4,244.2z M219.8,244.2l0.4-2.3c0.4-1.8-0.6-2.8-2.5-2.8c-1.8,0-2.8,0.9-3.2,2.8l-0.5,2.3
		c-0.4,1.8,0.6,2.8,2.5,2.8C218.4,247,219.4,246.1,219.8,244.2z"/>
	<path class="st3" d="M238.8,242.5l-1.1,5.9h-1.7l1.2-6.1c0.4-2.2-0.4-3.2-1.8-3.2c-1.4,0-2.3,1-2.8,2.8c0,0.2-0.1,0.4-0.1,0.7
		l-1.1,5.9h-1.7l1.2-6.1c0.4-2.2-0.4-3.2-1.8-3.2c-1.3,0-2.3,1-2.8,2.6l-1.3,6.7h-1.7l2.1-10.6h1.1l0.1,1.1c0.8-0.8,1.7-1.3,2.9-1.3
		c1.4,0,2.5,0.7,3,2c0.8-1.2,2-2,3.4-2C238,237.5,239.4,239.3,238.8,242.5z"/>
	<path class="st3" d="M250.2,241.8l-0.3,1.8h-7.1l-0.1,0.6c-0.3,1.7,0.6,2.7,2.4,2.7c1.6,0,2.5-0.8,2.9-2.1h1.7
		c-0.5,2.3-2.2,3.8-4.7,3.8c-3,0-4.6-1.9-4.1-4.5l0.5-2.4c0.5-2.7,2.3-4.2,4.9-4.2C249.1,237.5,250.6,239.4,250.2,241.8z
		 M248.4,241.9c0.4-1.7-0.6-2.8-2.2-2.8c-1.6,0-2.7,0.9-3,2.8H248.4z"/>
	<path class="st3" d="M251.4,244.9h1.6c-0.3,1.5,0.7,2.3,2.5,2.3c1.5,0,2.4-0.8,2.4-1.8c0-2.5-5.5-1-5.5-4.5c0-2.1,1.8-3.3,4.2-3.3
		c2.6,0,4.3,1.4,3.8,3.7h-1.7c0.3-1.5-0.6-2.2-2.2-2.2c-1.5,0-2.5,0.7-2.5,1.7c0,2.3,5.5,0.9,5.5,4.5c0,2-1.7,3.4-4.2,3.4
		C252.7,248.6,250.9,247.2,251.4,244.9z"/>
</g>
</svg>
