<svg xmlns="http://www.w3.org/2000/svg" viewBox="0 0 278.6 201.65"><defs><style>.cls-1{isolation:isolate;}.cls-2{fill:none;stroke:#c39642;}.cls-3{fill:#fff;}</style></defs><g id="Layer_2" data-name="Layer 2"><g id="Layer_1-2" data-name="Layer 1"><g id="Layer_2-2" data-name="Layer 2"><g id="Layer_1-2-2" data-name="Layer 1-2"><g id="Logo"><g id="Wicked_Weather" data-name="Wicked Weather"><g class="cls-1"><path class="cls-2" d="M77.12,6.8c0,3.64-3,9.67-3,23.71,0,5.2.52,6.14.52,8.12,0,3.85-1.77,8.73-1.77,12.69,0,2.8,1.45,5.92,1.45,7.17,0,1.87-.52,2.5-1.56,2.5s-1.35-.63-1.35-1.67.31-2.28.31-3.43c0-2.08-.93-3.12-2.08-3.12-1.66,0-2.08,1.15-2.08,3.23,0,1.87,1.77,3.84,1.77,5.3,0,2-1.66.73-2.29,7.38-.1,1.15-1.66,4.68-1.66,7,0,1.67,1.46,5.41,1.46,7.28,0,5-.32,7-2,7-1.25,0-2.5-1.25-2.5-3.54,0-1.87.73-5.19.73-7.59,0-1.87-.52-3.33-2.6-3.33-1.66,0-.52,5.31-3.12,5.31-1.56,0-2.29-3.12-2.29-6.55,0-2.6.32-5.52.32-6.66,0-4-.42-5.3-1.46-5.3-.52,0-1.66,1-2.18,1s-.84-.73-.84-2c0-3,.94-6,.94-9.47,0-1.66-.42-2.8-.42-7.69,0-3.22-.41-4.79-1.66-4.79-3,0-3.12,5.31-3.12,8.85,0,3.32.21,4.36.21,6.24,0,2.7-1.25,9-1.25,11.64,0,3.23,1.87,6.14,1.87,8.12,0,4.16-.73,5.61-2.7,5.61-1.35,0-2.39-3.74-4-3.74-1.15,0-1.67.52-1.67,1.56,0,1.35.94,3.74.94,5.82,0,1.67-.52,2.39-1.15,2.39-1.76,0-.41-10.5-3.74-10.6-.83,0-2.29,1.45-3.64,1.45-.83,0-1.35-.41-1.35-1.25C30.22,74,33,68.58,33,65.36c0-1.67-1.25-3.12-2.4-3.12-2.28,0-3.43,2.28-5,2.28a1.29,1.29,0,0,1-1.45-1.35c0-7.28,2.6-12,2.6-31.09,0-6.35-1.15-10.82-3.64-17.17-.94-2.18-.94-8.73-.94-10.29,0-2.19,2.5-2.71,5.2-2.71C33,1.91,34.9,4.2,34.9,7.84c0,13.31-1,17.79-1,21.53,0,2.18,1.35,7.7,5.09,7.7,1,0,1.56-.94,1.56-3.54,0-.73-.2-1.45-.2-2.6,0-4.37,2.28-5.72,2.28-12.9,0-4.05-1.66-10-1.66-11.64,0-2.29,1-5.1,3.74-5.1,2.08,0,4.48,2,6.24,2,1.46,0,2.6-1,3.75-1,2,0,2.49.72,2.49,2.8,0,1.25-.83,3.54-.83,4.79,0,2.7,1,7,1,9.77,0,2.08-.31,3.75-.31,5.2,0,3.64.52,5.41,2.6,5.41,3.74,0,2.6-7.28,3.43-20.69.21-3.75.94-5.31,6-5.31,2.29,0,3.85-.52,5.1-.52C76.19,3.68,77.12,4.72,77.12,6.8Z"/><path class="cls-2" d="M94.28,30.83a1.63,1.63,0,0,0-1.87,1.76c0,1.77.83,3.65.83,5.52a46.46,46.46,0,0,1-.62,7.69c0,1.67,1.56,6.14,1.56,9,0,1.66-.94,4.47-.94,7.28,0,1.14.1,3,.1,3.74,0,1.77-.52,4.16-.52,5.2,0,.73,1.36,3,1.36,3.54,0,2.49-4.58.52-4.58,2.39,0,1.14.62,5,.62,5.82,0,1.15-.52,3.75-2.08,3.75-.52,0-.72-.94-.72-2.71,0-1,.1-4,.1-5,0-1.66-.1-2.49-.62-2.49-1.67,0-1.15,5.4-2.81,5.4-.63,0-1-.31-1-1.24,0-1.67.21-3.33.21-3.64,0-.63-.42-1-1.67-2.6-1.77-2.29-2-3.54-2-5.2a41.35,41.35,0,0,0,1.14-8.32c0-4.37,1-7.28,1-8.74,0-2.08-2.18-2.39-2.18-5.51,0-3.33,2.6-6.35,2.6-10.09a79,79,0,0,0-.63-9.15c0-.73.52-3.75.52-4.79a8.29,8.29,0,0,0-1.56-3.74c-.93-1.35-1-1.15-1-2.5s1.56-4.47,1.56-5.93a32.83,32.83,0,0,1-.73-4.47,2.1,2.1,0,0,1,2.29-2.18c.83,0,3,.93,4.27.93,1,0,2.08-.72,3.12-.72,1.87,0,5.4,1.56,5.4,4.88,0,2.5-1.66,5-1.66,7.28,0,3,2.08,10.72,2.08,13.73,0,.83-.21,1.25-.52,1.25S94.59,30.83,94.28,30.83Z"/><path class="cls-2" d="M128.39,5.55c4,1.25,7.8,8.84,7.8,14,0,1.46-.62,4.89-.62,6.56,0,2.28.52,2.91.52,4s-.42,2-1.46,2c-.73,0-1.87-2.71-2.18-2.71s-1,.73-1.35.73c-.52,0-1.46-1.56-1.88-1.56-2.39,0-.1,5.62-2.49,5.62-1.67,0-.83-2.08-1.56-3.44-.83-1.56-2-1.87-2-5.51,0-.52.11-1.14.11-2.18,0-4.89-.21-8.22-1.46-8.22-.83,0-1.56,2-1.56,4.58,0,1.35.73,3.64.73,5.2,0,1.14-.31,2.08-1.35,2.08-1.56,0-1.77-4-1.77-4.79,0-1.14.21-2.49.21-3.53,0-1.25-.21-2.08-1.15-2.08a1.69,1.69,0,0,0-1.56,1.66c0,1.56,1.67,3.43,1.67,4.26,0,1-.63,1.88-1.36,1.88s-1-.42-1.76-.42-.73.94-.73,1.46c0,3.22,1,3,1,4.78,0,2.29-1.56,5.72-1.56,7.7,0,1,.41,2.08,2,4.16a6.38,6.38,0,0,1,1.15,3.74,36,36,0,0,0,.41,5.51A3.12,3.12,0,0,1,114,53.81c-1.25.42-1.46.94-1.46,1.46,0,.73,1.46,1.87,1.46,2.91a1.82,1.82,0,0,1-.62,1.25,6.84,6.84,0,0,0-.63,3.53c0,1.88,1,2.6,2.19,2.6.41,0,1.87-.41,2.49-.41s1.67.83,2.39.83c3.85-.21,4.68-9.26,4.68-13,0-1.46-.2-2.08-.2-3s.31-1.56.93-1.56c.94,0,1.87,1,2.6,1s1.35-.83,2.08-.83,1.46.63,2.39.63c.73,0,1.56-.84,2-.84,1.77.21,2.6,1.77,2.6,3.64,0,2.71-2.18,5.2-2.18,8.43,0,1,.2,2.29.2,4,0,3.22-1.87,5.3-6.44,9.57-.94.93-3.64,1.77-4.68,3.33-.52.41-.73,3.53-1.67,3.53s-2.39-4-3.53-4c-2.29,0-.42,5.2-3.12,5.2-1.46,0-.32-6.56-2.71-6.56-1.56,0-.21,3.44-1.66,3.44-1.15,0-1.15-4.37-2.6-4.89a4.22,4.22,0,0,1-1.56-.73c-1.46-1.25-1.87-5.62-2.5-5.62-.31,0-.21,1.15-.83,1.15s-.94-.83-.94-3c0-1.45.52-2,.52-3,0-1.25-.93-1-.93-2.08a22.56,22.56,0,0,1,.62-2.92c0-.72,0-1.24-.31-1.24s-.52.62-.94.62-.52-.31-.52-.73c0-2.39,1.25-3.74,1.25-9.25,0-7.28-.62-17-.62-26.94q0-11.08,5.93-13.73c6.55-2.81,7.9-4.78,9.25-4.78C118.93,1.71,124.86,4.1,128.39,5.55Z"/><path class="cls-2" d="M151.06,4.41c1,0,2.81-.83,3.75-.83a1.64,1.64,0,0,1,1.87,1.87c0,.52-.21,2.29-.21,2.6,0,4.26,1,4.58,1,7.18,0,1.66-2.5,1.76-2.5,3.22a17.6,17.6,0,0,0,.73,3.64c0,1-.52,3-.52,3.74a2.14,2.14,0,0,0,2,2.4c1.14,0,.62-4,3-9.47,2.29-5.2,1.67-5.51,3.75-7.8a21.15,21.15,0,0,0,3.54-4.78c.83-2.29,2.08-2.5,2.7-2.5s2.29.31,3.12.31c1.25,0,2.39-.93,3.54-.93a1.31,1.31,0,0,1,1.24,1.45c0,1.36-2.18,10.51-2.18,12.9,0,1.46.73,3.43.73,5.51,0,1.87-.52,2.29-1.25,2.29a1.48,1.48,0,0,1-1.35-1.56c0-2,.2-3.64.2-4.37s-.1-1.77-.93-1.77c-1.15,0-2.08,2.4-2.08,4s.73,2.91.73,4.16c0,1-.31,1.66-1,1.66-.52,0-1.25-.42-1.67-.42-1.35,0-1.76,1.77-1.76,2.92s1,3.53,1,5c0,.93-.21,2.7-.21,3.74a10.89,10.89,0,0,0,1.25,4.89c2.8,6,1.35,5.51,4.16,14.25-.63-1.14,5.51,7.7,5.51,10.61a1.46,1.46,0,0,0-.11.73c0,.83.42,2,.52,3.64-.2,1.76-3.84,2.7-3.84,4.26,0,1,.93,3.22.93,4.16,0,.52-.62,4.27-1.66,4.27-1.35,0-1.67-2.61-1.67-4.16,0-.42.21-1.77.21-2.29a1.24,1.24,0,0,0-1.25-1.36c-.72,0-1.35,1.77-1.76,1.77-.94-.1-.84-2.39-1-2.81a25.53,25.53,0,0,1-2.81-3c-1-1.56-.94-4.79-1-5.93-.63-2.81-1.88-5.82-2.6-8.74-1.15-3.95-3.54-7.9-3.54-12.58,0-2.6-.52-2.91-.94-2.91-1.35,0-2.39.93-2.39,3,0,.94,1.56,3.23,1.56,4.27a10.79,10.79,0,0,1-.52,3.53,40.05,40.05,0,0,0-2,13.94c0,1.66,1.14,3.22,1.14,4.78,0,.94.1,1.67-2.6,3.64-1.56,1.15-1.77,2-1.77,2.81,0,.63.42,2.08.42,2.71,0,3.12-.73,4.36-1.67,4.36-1.66,0-1.56-8.94-2.6-8.94C147,77.42,147.84,81,146,81c-2-.52-2.81-11.44-2.81-13.11,0-1.87.52-3.12.52-4.37,0-2.28-2.6-3.64-2.6-4.88,0-3.12,2.7-2,2.7-10.61,0-2-.21-3.54-.21-4.27,0-2.6.84-3.22.84-9.67,0-2.29-1-5.2-1-8,0-2.49.72-4.89.72-6.76,0-2.81-.62-7.8-.62-11.23,0-3.74,1.14-4.26,3.64-4.26C148.36,3.79,149.81,4.41,151.06,4.41Z"/><path class="cls-2" d="M213.46,71c0,.52.21,1.77.21,3.33,0,1.25-.52,1.77-1.56,1.77-.73,0-4-1-5.2-1a2.12,2.12,0,0,0-2.18,2.18c.31,1.77,1.14,2.29,1.14,5,0,.84-.1,1.15-1,1.15-1.56.1-2.7-7.7-4.58-7.7-1.56,0-2.6,2-2.6,2.71s.63,1.45.63,2.18c0,2-.63,2.29-1.46,2.29-3.22,0-2.6-6.45-4.37-6.45-.31,0-1,1.56-2,1.56-.73,0-2.29-1.56-3-1.56-.42,0-1.25.62-1.66.62-1.88,0-1.25-3.74-1.46-4.57v-2c0-.52.11-1.87.11-2.6V65.56c0-3.32.72-10.81.72-14,0-2.49,1.36-6,1.36-6.55,0-.93-.42-1.46-1.57-1.46-.41,0-1,.32-1.45.32-.83,0-.94-1.15-.94-1.77a4.14,4.14,0,0,1,.42-2c1.25-2.18,1.46-5.3,1.46-7.59,0-3.54,1.35-6.14,1.35-8.74,0-.72-1-3.53-1-5,0-1,.2-2.7.2-3.64s-.51-2.6-.51-3.64c0-.52.31-1.35.31-1.87,0-.73-1-2-1-2.81,0-1.66,1.66-2.39,3.95-2.39.41,0,1.35.1,2.08.1,1.87,0,2.29-.93,3.85-.93.93,0,2,.93,2.7.93s1-.62,2.08-.62c1.46,0,3.33,1.66,4.89,1.66,1,0,2.08-1.14,3.54-1.14,1,0,1.45.52,2.18.52s1.14-.73,2.7-.73c.73,0,1.25,1.35,1.25,5.2,0,2.71,1.46,12.27,1.46,16,0,1.25-.63,2-2.08,2-.94,0-1.46-.52-1.46-1.56,0-.83.21-3.64.21-3.95,0-3.64-.31-6.76-.94-6.76-1.87,0-.1,6.87-2.18,6.87a1.05,1.05,0,0,1-1.14-.84,14.72,14.72,0,0,0-1-3.74c-1.36-.94-2.6-1.87-3.85-1.87-2.29,0-2.5,2.6-3.64,2.6-.63,0-.94-.21-1.35-.21-2.29,0-2.81,2.39-2.81,5.62,0,6.13,3.95,9.67,5.51,9.67.31,0,3.54-.73,4-.73a26.31,26.31,0,0,1,4.37-.31c1,0,1.77,1.14,1.77,2.6,0,.73-.94,2.6-.94,3.64,0,2.18,2,7.59,2,9.15,0,1.87-1.56,4.47-2.5,4.47-2.08,0-.52-5.72-3.12-5.72-2.18,0-.41,3.85-2.18,3.85-1.25,0-1.67-3.43-2.81-3.43-.73,0-1.46-.42-2.18-.42-.94,0-1.36.21-1.36,1a28.27,28.27,0,0,1,.73,6.66c0,1.56-1.45,4.37-1.45,5.51,0,1.67,1.45,3.85,5.92,3.85.63,0,1.46-.1,2.4-.1,1.45,0,4.16.83,5.51.83.41,0,.93-.11,1.45-.11a3.57,3.57,0,0,1,3.23,3.23C214.4,68.37,213.46,70,213.46,71Z"/><path class="cls-2" d="M254.33,57c0,2.28.94,3.43.94,4.57,0,2.08-2.29,2.19-2.29,3.54,0,2.6.63,1.87.63,4.37,0,.93-2.6,2.49-2.6,4.57,0,.63.1,1.25.1,2.5,0,1-.42,1.56-1.25,1.56-1.14,0-3.12-2.71-4.05-2.71-1.25,0-1.67,1.67-1.67,3.12,0,1,.21,1.88.21,2.5s-.21.83-.73.83c-1.35,0-2.39-5.93-5-5.93-1.66,0-1.77,1.36-2.81,1.36-1.66,0-2.6-2.92-8.11-2.92-2,0-2.5,2.4-2.5,3.12s1.56,2.92,1.56,4.06-.41,1.67-1.77,1.67a1.68,1.68,0,0,1-1.55-1.88c0-1.14.41-2.7.41-3.43,0-.31,0-2.29-1.25-2.29-.41,0-.62.52-1.35.52s-.83-.73-.83-1.25c0-1.24.83-1.87.83-4,0-5.72-.52-7-.52-8.63,0-2.39.63-5.2.63-6.24s-.21-1.35-1.36-3.54a3.11,3.11,0,0,1-.52-1.56c0-2,1.15-5.51,1.15-7.49,0-4.78,1.24-8.73,1.24-13a24.78,24.78,0,0,0-.83-4c0-3.53,1.46-6.45,1.46-7,0-2.39-3.64-3.22-3.64-5.72,0-3.84-.31-3.84-.31-5.51,0-2.18.73-3.85,3.43-3.85.42,0,2.08.21,2.39.21,1.46,0,3.74-.93,4.27-.93,1.14,0,2.8,1.45,3.95,1.56s3.12-1.15,4.16-1.15c2.18.11,3.43,1.25,5.72,1.46,5.72.41,10.19,6,11.85,14.87,0,.73.11,1.56.11,2.18,0,5-1.87,3.54-1.87,5.1,0,3.43,3,8.74,3,11.34,0,7.28-.62,11.13-.62,12.06C255,52.77,254.33,54.23,254.33,57Zm-11-10.92c0-4.48.52-9.26.52-14,0-2-.42-3.33-2-3.33-1.76,0-1.56,3.84-3.12,3.84-.52,0-.83-.51-.83-1.66a53.13,53.13,0,0,1,.63-6.45c0-2,.1-3,.1-3.95,0-1.35-.1-2.18-1.56-2.18-.52,0-.73.31-.73,1.14,0,1,.63,3.12.63,4,0,.52-.21.73-.52.73-1.67,0-2.4-1.35-2.4-3.12,0-.73.52-2.5.52-3.22,0-1.25-.83-2.71-1.56-2.71s-.93,2.19-.93,2.81c0,.1.52,3,.52,3.54,0,1.35-.94,2.49-.94,4.57,0,3,2.19,5.83,2.19,8.12,0,4.67-1.56,5.4-1.56,10.4a12.71,12.71,0,0,0,.72,4.88c.52,1.25,1.56,2.39,1.56,4,0,.62-.2.93-.72.93-.11,0-1.25-.31-1.46-.31a1.27,1.27,0,0,0-1.25,1.35c0,1.25.94,7.91,3.75,7.91,1,0,2,.1,2.91.1,3.12,0,5.51-1.25,5.51-12.69V46.12Z"/></g><g class="cls-1"><g class="cls-1"><path class="cls-2" d="M56.58,116.8c0,3.64-3,9.67-3,23.71,0,5.2.52,6.14.52,8.12,0,3.85-1.77,8.73-1.77,12.69,0,2.8,1.45,5.92,1.45,7.17,0,1.87-.52,2.5-1.56,2.5s-1.35-.63-1.35-1.67.31-2.28.31-3.43c0-2.08-.93-3.12-2.08-3.12-1.66,0-2.08,1.15-2.08,3.23,0,1.87,1.77,3.84,1.77,5.3,0,2-1.66.73-2.29,7.38-.1,1.15-1.66,4.68-1.66,7,0,1.67,1.46,5.41,1.46,7.28,0,5-.32,7-2,7-1.25,0-2.5-1.25-2.5-3.54,0-1.87.73-5.19.73-7.59,0-1.87-.52-3.33-2.6-3.33-1.66,0-.52,5.31-3.12,5.31-1.56,0-2.29-3.12-2.29-6.55,0-2.6.32-5.52.32-6.66,0-3.95-.42-5.3-1.46-5.3-.52,0-1.66,1-2.18,1s-.84-.73-.84-2c0-3,.94-6,.94-9.47,0-1.66-.42-2.8-.42-7.69,0-3.22-.41-4.79-1.66-4.79-3,0-3.12,5.31-3.12,8.85,0,3.32.21,4.36.21,6.24,0,2.7-1.25,9-1.25,11.64,0,3.23,1.87,6.14,1.87,8.12,0,4.16-.73,5.61-2.7,5.61-1.35,0-2.39-3.74-3.95-3.74-1.15,0-1.67.52-1.67,1.56,0,1.35.94,3.74.94,5.82,0,1.67-.52,2.39-1.15,2.39-1.76,0-.41-10.5-3.74-10.6-.83,0-2.29,1.45-3.64,1.45-.83,0-1.35-.41-1.35-1.25,0-1.45,2.81-6.86,2.81-10.08,0-1.67-1.25-3.12-2.4-3.12-2.28,0-3.43,2.28-5,2.28a1.29,1.29,0,0,1-1.45-1.35c0-7.28,2.6-12,2.6-31.09,0-6.35-1.15-10.82-3.65-17.17-.93-2.18-.93-8.73-.93-10.29,0-2.19,2.5-2.71,5.2-2.71,5.62,0,7.49,2.29,7.49,5.93,0,13.31-1,17.79-1,21.53,0,2.18,1.35,7.7,5.09,7.7,1,0,1.56-.94,1.56-3.54,0-.73-.2-1.45-.2-2.6,0-4.37,2.28-5.72,2.28-12.9,0-4-1.66-10-1.66-11.64,0-2.29,1-5.1,3.74-5.1,2.08,0,4.48,2,6.24,2,1.46,0,2.6-1,3.75-1,2,0,2.49.72,2.49,2.8,0,1.25-.83,3.54-.83,4.79,0,2.7,1,7,1,9.77,0,2.08-.31,3.75-.31,5.2,0,3.64.52,5.41,2.6,5.41,3.74,0,2.6-7.28,3.43-20.69.21-3.75.94-5.31,6-5.31,2.29,0,3.85-.52,5.1-.52C55.65,113.68,56.58,114.72,56.58,116.8Z"/><path class="cls-2" d="M90,181c0,.52.21,1.77.21,3.33,0,1.25-.52,1.77-1.56,1.77-.73,0-4-1-5.2-1a2.12,2.12,0,0,0-2.18,2.18c.31,1.77,1.14,2.29,1.14,5,0,.84-.1,1.15-1,1.15-1.56.1-2.7-7.7-4.57-7.7-1.56,0-2.6,2-2.6,2.71s.62,1.45.62,2.18c0,2-.62,2.29-1.46,2.29-3.22,0-2.6-6.45-4.36-6.45-.32,0-1,1.56-2,1.56-.73,0-2.29-1.56-3-1.56-.41,0-1.24.62-1.66.62-1.87,0-1.25-3.74-1.46-4.57v-2c0-.52.11-1.87.11-2.6v-2.29c0-3.32.73-10.81.73-14,0-2.49,1.35-6,1.35-6.55,0-.93-.42-1.46-1.56-1.46-.42,0-1,.32-1.46.32-.83,0-.93-1.15-.93-1.77a4.23,4.23,0,0,1,.41-2c1.25-2.18,1.46-5.3,1.46-7.59,0-3.54,1.35-6.14,1.35-8.74,0-.72-1-3.53-1-5,0-1,.21-2.7.21-3.64s-.52-2.6-.52-3.64c0-.52.31-1.35.31-1.87,0-.73-1-2-1-2.81,0-1.66,1.66-2.39,4-2.39.42,0,1.35.1,2.08.1,1.87,0,2.29-.93,3.85-.93.94,0,2,.93,2.7.93s1-.62,2.08-.62c1.46,0,3.33,1.66,4.89,1.66,1,0,2.08-1.14,3.54-1.14,1,0,1.45.52,2.18.52s1.15-.73,2.71-.73c.72,0,1.24,1.35,1.24,5.2,0,2.71,1.46,12.27,1.46,16,0,1.25-.62,2-2.08,2-.94,0-1.46-.52-1.46-1.56,0-.83.21-3.64.21-4,0-3.64-.31-6.76-.93-6.76-1.88,0-.11,6.87-2.19,6.87a1.05,1.05,0,0,1-1.14-.84,14.72,14.72,0,0,0-1-3.74c-1.35-.94-2.6-1.87-3.85-1.87-2.29,0-2.5,2.6-3.64,2.6-.62,0-.94-.21-1.35-.21-2.29,0-2.81,2.39-2.81,5.62,0,6.13,3.95,9.67,5.51,9.67.31,0,3.54-.73,4-.73a26.31,26.31,0,0,1,4.37-.31c1,0,1.77,1.14,1.77,2.6,0,.73-.94,2.6-.94,3.64,0,2.18,2,7.59,2,9.15,0,1.87-1.56,4.47-2.5,4.47-2.08,0-.52-5.72-3.12-5.72-2.18,0-.41,3.85-2.18,3.85-1.25,0-1.66-3.43-2.81-3.43-.73,0-1.45-.42-2.18-.42-.94,0-1.35.21-1.35,1a28.64,28.64,0,0,1,.72,6.66c0,1.56-1.45,4.37-1.45,5.51,0,1.67,1.45,3.85,5.93,3.85.62,0,1.45-.1,2.39-.1,1.45,0,4.16.83,5.51.83.42,0,.94-.11,1.46-.11a3.56,3.56,0,0,1,3.22,3.23C90.9,178.37,90,180,90,181Z"/></g><g class="cls-1"><path class="cls-2" d="M110.87,114.51c2.91,0,4.26-1.35,6-1.35s1.66,1,2.49,4.27l.94,3.43a35.34,35.34,0,0,1,.73,4c0,.94-.42,2.92-.42,4.06a44.42,44.42,0,0,0,.63,7.59c0,.42,3.32,10.82,3.32,17.48,0,5.82,2.29,7.79,2.29,12.06a31.47,31.47,0,0,0,1.46,8.74c2.08,7.69,2.39,8.84,2.39,11.85s-.94,4.27-2.6,4.27c-1.25,0-1.66-.63-1.66-1.77,0-.73.2-1.67.2-2.29,0-.94-.31-1.25-.93-1.25-1.77,0-.73,4.58-2.29,4.58s-1.35-4.68-2.5-4.68c-.41.1-.62.62-.62,1.87,0,.73.31,2.29.31,3.43,0,1.35-.62,2-1.25,2-2,0-1.87-5.51-2-9.05-.11-2.39-1.25-5.2-1.25-8.32,0-3.33-.52-5.82-2.08-5.82s-1.14,4.68-2.91,4.68c-1.35,0-3.23-3.75-4.06-3.75-.41,0-.73.52-.73,1.25,0,1.46.63,1.56.63,3,0,.83-2.08,1.35-2.08,2.7,0,.83.73,2.18.73,3.43,0,3.64-4,.21-4,6.66,0,1.66,0,3.33-1.45,3.33-2.71,0-1-5.31-3.12-5.31-.83,0-1.87,2.6-2.71,2.6s-1.14-.41-1.14-1.25c0-1.87.73-2.49.73-7.48a42.83,42.83,0,0,1,.31-7.6l.94-4.57,2.28-9.47a9.66,9.66,0,0,0,.42-2.49c0-.63-.52-.83-.52-1.77a18.1,18.1,0,0,1,1-4.58c1.25-4.26.52-5.41,2.5-16.12,1.24-6.86.72-20,4.36-20C106.6,113.27,108.79,114.51,110.87,114.51Zm-3,38.49c0,1.45.62,2.08.73,2.8,0,.42-.73,1-.73,2.6,0,.84,1.14,1.25,3.22,1.25,2.4,0,3.12-.62,3.12-1.35s-.41-1.87-.41-3.33c0-7-.42-7.7-.83-7.7-1,0-.42,3.65-1.77,3.65s-.31-5.1-1.46-5.1S107.85,150.5,107.85,153Z"/></g><g class="cls-1"><path class="cls-2" d="M160.89,121c0,1.67-1.56,5.83-1.56,7.91a19.25,19.25,0,0,0,.41,3.43c0,1.25-.31,1.77-1.24,1.77-2.71,0-1.25-7-2.6-7-1.15,0-1.25,2.6-2.19,2.6-1.35,0-1.87-2.29-3.64-2.29-2.29,0-2.91,1.56-2.91,5.72,0,1,.42,2.6.42,3.33,0,3.12-.63,5.41-.63,7.17,0,5.31,2.08,6.45,2.08,13.63,0,5.3-1.87,7.9-1.87,12.06,0,3,.94,4.37.94,6.56,0,.72-.32,1.76-.32,2.39,0,1.14,1.25,3.33,1.25,4.57-.31,3-5.51,1.56-5.51,7.8,0,2.92,1.25,5,1.25,8.43,0,1.14-1,2.08-3,2.08-1.66,0-2.49-.63-2.49-2,0-1.87,1-3.53,1-5.3,0-3.54,0-8.63-1.88-8.63-.93,0-.83,1.76-1.87,1.76-1.56,0-2.39-7.17-2.39-9.46,0-6.34,2.7-15.29,2.7-17.68,0-4.68-.52-5.41-.52-7,0-2.29.73-9.88,1.25-14.46.42-3.64,1.35-8.11,1.35-10,0-2.08-2-2.08-2.91-2.08-2.91,0-2,6.86-4.78,6.86-2.4,0-1.46-6.86-4.89-6.86a2.4,2.4,0,0,1-2.5-2.08c0-.83,1.46-2.7,1.46-4s-.94-4.06-.94-4.89.52-1.25,1.35-1.25c1.77,0,3.33,1.56,5.21,1.56,3.95,0,6.13-2.18,8.73-2.18,4.68,0,5.62,1.35,10.61,1.35,3,0,5-1.46,6.45-1.46C159.64,113.47,160.89,118.36,160.89,121Z"/><path class="cls-2" d="M195.73,167.24c0,7.7,2.18,12.38,2.18,13.63,0,2.6-2.29,5.51-3.22,5.51-.42,0-1.56-.31-1.87-.31a1.25,1.25,0,0,0-1.46,1.25,18.08,18.08,0,0,0,.73,3.43,1.11,1.11,0,0,1-1.25,1.25c-.31,0-.52-.52-.52-1.67v-1.77c0-2.08-.52-2.91-1.46-2.91-1.14,0-2.39,1.67-3.53,1.67-.63,0-1-.73-1-2v-2.18c-.11-1.15-.83-7.28-.83-8.22,0-.52.2-2.08.2-2.39s-.1-.73-.1-1.46c0-2.08,2-5.61,2-8,0-1,.62-5.2.62-6.55s-.52-2.18-1.25-2.18-2.6,2.81-3.33,2.81c-.52,0-1.87-.52-2.18-.52a1.28,1.28,0,0,0-1,1.35,7.78,7.78,0,0,1,.42,2.7V162c0,.63-.32,1.56-.94,1.56s-1.56-2.6-2.6-2.6c-.31,0-.62.32-.62.83,0,.94,1,4.06,1,5.41,0,1.67-.63,4.89-.63,5.83,0,1.14.63,2.29.63,4.05,0,.42-.11.63-.11,1a14.31,14.31,0,0,0,1.15,4.89c0,1.15-1.15,2.91-1.88,2.91a5.82,5.82,0,0,0-.72-.1c-1.46,0-3.75.42-4.27,2.5,0,.83,1.25,2.18,1.25,2.91s-.42,1.14-1.25,1.14a1.58,1.58,0,0,1-1.45-1.56c.1-1.25.31-2.18.31-2.91,0-1.56-.52-2.29-1.46-2.29-1.14,0-3,2.29-3.53,2.29a.85.85,0,0,1-.84-.94c-.1-.1.84-3.12.84-4.36,0-1-.94-2.92-.94-3.64s1.56-3.23,1.56-4.06c0-3.43-3-1.25-3-5.82,0-1.36,1.77-4.48,1.77-6v-4c0-5.62,2.08-12.17,2.08-13,0-2.29-1.35-6.13-2-6.13-.42,0-.94.93-1.25.93-.52-.1-.73-.62-.73-1.56,0-2.29,2-9.88,2-14.35,0-2.71-.21-4.47-.21-6.24a5,5,0,0,1,4.89-5.1c.52,0,1.87.31,2.7.31.52,0,.94-.2,1.66-.2,2.5,0,2.71,3.84,2.71,6.34,0,7.28,2.39,8.63,2.39,11.34,0,1.87-2.5-.42-2.5,4.88,0,3.33,1,5.83,3.23,5.83.52,0,1.25-.31,1.87-.31a13.32,13.32,0,0,1,3.64.83c.52,0,.83-.42.94-1a32.33,32.33,0,0,1-.73-3.85v-5.3c0-5.83-.11-7.28-.11-8.12,0-1.56.84-4.16.84-5.09,0-1.77-1.56-2.5-1.56-3.12,0-1.46,2.39-2.81,4.57-2.81a36,36,0,0,1,4.89.42c.42,0,2.18-.63,2.6-.63,2.6.52,2.91,4.37,2.91,9.36,0,2-.2,5.2-.73,6.45l-.93,2.08a8.24,8.24,0,0,0-.42,2.91c0,3.64,1.67,9.15,1.67,10.2v1.45a38,38,0,0,0,.41,5.1c0,1.35-.73,3.53-.73,4.78s1.15,3.64,1.15,4.47c0,.11-.11.52-.21,1S195.73,164.12,195.73,167.24Z"/><path class="cls-2" d="M235.35,181c0,.52.21,1.77.21,3.33,0,1.25-.52,1.77-1.56,1.77-.73,0-3.95-1-5.2-1a2.12,2.12,0,0,0-2.18,2.18c.31,1.77,1.14,2.29,1.14,5,0,.84-.1,1.15-1,1.15-1.56.1-2.7-7.7-4.58-7.7-1.56,0-2.6,2-2.6,2.71s.63,1.45.63,2.18c0,2-.63,2.29-1.46,2.29-3.22,0-2.6-6.45-4.37-6.45-.31,0-1,1.56-2,1.56-.73,0-2.29-1.56-3-1.56-.42,0-1.25.62-1.66.62-1.88,0-1.25-3.74-1.46-4.57v-2c0-.52.1-1.87.1-2.6v-2.29c0-3.32.73-10.81.73-14,0-2.49,1.36-6,1.36-6.55,0-.93-.42-1.46-1.57-1.46-.41,0-1,.32-1.45.32-.83,0-.94-1.15-.94-1.77a4.14,4.14,0,0,1,.42-2c1.25-2.18,1.45-5.3,1.45-7.59,0-3.54,1.36-6.14,1.36-8.74,0-.72-1-3.53-1-5,0-1,.2-2.7.2-3.64s-.52-2.6-.52-3.64c0-.52.32-1.35.32-1.87,0-.73-1-2-1-2.81,0-1.66,1.66-2.39,3.95-2.39.41,0,1.35.1,2.08.1,1.87,0,2.29-.93,3.85-.93.93,0,2,.93,2.7.93s1-.62,2.08-.62c1.46,0,3.33,1.66,4.89,1.66,1,0,2.08-1.14,3.54-1.14,1,0,1.45.52,2.18.52s1.14-.73,2.7-.73c.73,0,1.25,1.35,1.25,5.2,0,2.71,1.46,12.27,1.46,16,0,1.25-.63,2-2.08,2-.94,0-1.46-.52-1.46-1.56,0-.83.21-3.64.21-4,0-3.64-.31-6.76-.94-6.76-1.87,0-.1,6.87-2.18,6.87a1.05,1.05,0,0,1-1.14-.84,14.72,14.72,0,0,0-1-3.74c-1.36-.94-2.6-1.87-3.85-1.87-2.29,0-2.5,2.6-3.64,2.6-.63,0-.94-.21-1.35-.21-2.29,0-2.81,2.39-2.81,5.62,0,6.13,4,9.67,5.51,9.67.31,0,3.54-.73,3.95-.73a26.31,26.31,0,0,1,4.37-.31c1,0,1.77,1.14,1.77,2.6,0,.73-.94,2.6-.94,3.64,0,2.18,2,7.59,2,9.15,0,1.87-1.56,4.47-2.5,4.47-2.08,0-.52-5.72-3.12-5.72-2.18,0-.41,3.85-2.18,3.85-1.25,0-1.67-3.43-2.81-3.43-.73,0-1.46-.42-2.18-.42-.94,0-1.36.21-1.36,1a28.27,28.27,0,0,1,.73,6.66c0,1.56-1.45,4.37-1.45,5.51,0,1.67,1.45,3.85,5.92,3.85.63,0,1.46-.1,2.4-.1,1.45,0,4.16.83,5.51.83.41,0,.93-.11,1.45-.11a3.57,3.57,0,0,1,3.23,3.23C236.29,178.37,235.35,180,235.35,181Z"/><path class="cls-2" d="M272.27,189.19a18,18,0,0,1,.42,3.12c0,3.43-.83,6.55-2,6.55-.73,0-.93-.62-.93-1.66,0-1.67.2-3.12.2-3.75,0-2.18-.52-7.17-1.56-7.17-1.76,0-1.76,1.56-2.8,1.56a.85.85,0,0,1-.94-.84,34.33,34.33,0,0,0,.62-4.05,12.78,12.78,0,0,0-1.24-5.31c-1.88-4-2.81-7.17-2.81-8.84,0-.93.21-1.56.21-2.39,0-2.39-2.08-4.26-2.08-5.93s.41-1.87.41-3.22c0-.73-.31-1.14-.93-1.14-1,0-2.19.41-2.19,2.8a16.77,16.77,0,0,0,.31,2.6.59.59,0,0,1-.62.63c-1.46-.11-.73-4.16-2.08-4.16-.42,0-.62.62-.62,1.87,0,.94.51,6.14.51,6.76,0,1.25-.72,6.76-.72,10.5,0,2.71,1.14,5.52,1.14,8.64,0,3.74-.1,4.88-1.14,4.88-2.29,0-1-4.26-2.81-4.26-1.25,0-2.6,1.66-2.6,3.12a41.46,41.46,0,0,0,.62,4.47c0,.63-.31,1-1.24,1s-1-1.14-1-2.08c0-.41.1-1.87.1-2.6,0-1.56.1-2.7-2.39-4.26-1.88-1.15-1.88-2.19-1.88-2.81s1.77-4.37,1.77-5.51c0-3.54-1.87-8.84-1.87-10.3,0-4.16,1.87-9.46,1.87-10.92,0-3-1.66-10.09-1.66-12,0-3.12,2.29-6.14,2.29-9.46,0-2.92-1.67-6.24-1.88-7.39-.1-1.45-1.35-4.37-1.35-5.61s.63-3.75.63-5.31c0-.41-.42-1.45-.42-2.18,0-1,1.14-1.67,2-1.67,1.14,0,4,1.56,4.89,1.56,1.14,0,3.22-.52,4.26-.52,2.39,0,5.93.52,8.32.52h-.1c13.41,2.4,14.35,7.7,14.76,10.09a43.35,43.35,0,0,1,.94,8.32c0,1.67-1.14,5-1.14,6.66,0,2.5-.63,7-.63,9.46a14.51,14.51,0,0,0,.31,2.39,2.19,2.19,0,0,1-1.87,2.29c-.93,0-2-2.18-2.91-2.18a.56.56,0,0,0-.52.52c0,1.45,1.56,2.81,1.56,4.26,0,.84-.52,1.56-.52,2.71a6.43,6.43,0,0,0,.62,2.6,33,33,0,0,1,1.77,4.26c.63,2.19.21,6.76.94,8.43s3.85,5.61,3.85,7.8C278.1,186.38,272.27,186.07,272.27,189.19Zm-9.46-55.44a25.7,25.7,0,0,1,.31-2.6c0-2.8-1.35-5-4.16-5-1.25,0-1.77,1.77-1.77,3.33,0,.42.1,1.46.1,1.77,0,.83-.2,1.14-.62,1.14-1.56,0-.93-3.64-2.39-3.64-.31,0-.52.42-.52,1.35s.73,7.08.73,8c0,1.25-.52,2-.52,3.12a1.29,1.29,0,0,0,1.24,1.35c.84,0,1.25-.41,1.77-.41,1,0,1.88,3,3.54,3,1.87,0,3-2.91,3-6.76C263.54,135,262.81,134.69,262.81,133.75Z"/></g></g></g><g id="Wicked_Weather-2" data-name="Wicked Weather-2"><g class="cls-1"><path class="cls-3" d="M74.72,5.46c0,3.6-3,9.58-3,23.48,0,5.15.51,6.08.51,8,0,3.81-1.75,8.65-1.75,12.56,0,2.78,1.44,5.87,1.44,7.11,0,1.85-.51,2.47-1.54,2.47s-1.34-.62-1.34-1.65.31-2.26.31-3.4c0-2.06-.93-3.09-2.06-3.09-1.65,0-2.06,1.14-2.06,3.2C65.25,56,67,58,67,59.43c0,2-1.65.72-2.27,7.31-.1,1.13-1.65,4.64-1.65,6.9,0,1.65,1.45,5.36,1.45,7.21,0,5-.31,6.9-2,6.9-1.24,0-2.47-1.23-2.47-3.5,0-1.85.72-5.15.72-7.52,0-1.85-.52-3.29-2.58-3.29-1.65,0-.51,5.25-3.09,5.25-1.54,0-2.26-3.09-2.26-6.49,0-2.58.31-5.46.31-6.59,0-3.92-.42-5.25-1.45-5.25-.51,0-1.64,1-2.16,1s-.82-.72-.82-2c0-3,.92-6,.92-9.37,0-1.65-.41-2.78-.41-7.63,0-3.19-.41-4.73-1.65-4.73-3,0-3.09,5.25-3.09,8.75,0,3.3.21,4.33.21,6.18,0,2.68-1.24,9-1.24,11.54,0,3.19,1.86,6.07,1.86,8,0,4.12-.72,5.56-2.68,5.56-1.34,0-2.37-3.71-3.91-3.71-1.14,0-1.65.52-1.65,1.55,0,1.34.93,3.71.93,5.77,0,1.64-.52,2.37-1.14,2.37-1.75,0-.41-10.41-3.71-10.51-.82,0-2.26,1.44-3.6,1.44-.82,0-1.34-.41-1.34-1.23,0-1.45,2.78-6.8,2.78-10,0-1.65-1.23-3.09-2.37-3.09-2.26,0-3.4,2.26-4.94,2.26a1.27,1.27,0,0,1-1.44-1.34c0-7.21,2.57-11.84,2.57-30.79,0-6.29-1.13-10.71-3.6-17-.93-2.16-.93-8.65-.93-10.19,0-2.17,2.47-2.68,5.15-2.68,5.56,0,7.42,2.26,7.42,5.87,0,13.18-1,17.61-1,21.32,0,2.16,1.33,7.62,5,7.62,1,0,1.55-.93,1.55-3.5,0-.72-.21-1.44-.21-2.58,0-4.32,2.27-5.66,2.27-12.77,0-4-1.65-9.89-1.65-11.53,0-2.27,1-5,3.71-5C44.65,0,47,2,48.77,2c1.44,0,2.57-1,3.71-1,2,0,2.47.72,2.47,2.78,0,1.23-.83,3.5-.83,4.74,0,2.67,1,6.9,1,9.68,0,2.06-.31,3.7-.31,5.15,0,3.6.52,5.35,2.58,5.35,3.71,0,2.57-7.21,3.4-20.49.2-3.71.92-5.26,6-5.26,2.27,0,3.81-.51,5-.51C73.8,2.37,74.72,3.4,74.72,5.46Z"/><path class="cls-3" d="M91.72,29.25A1.63,1.63,0,0,0,89.86,31c0,1.75.83,3.61.83,5.46a45.78,45.78,0,0,1-.62,7.62c0,1.65,1.54,6.08,1.54,8.86,0,1.65-.92,4.43-.92,7.21,0,1.13.1,3,.1,3.71,0,1.75-.52,4.12-.52,5.15,0,.72,1.34,3,1.34,3.5,0,2.47-4.53.51-4.53,2.37,0,1.13.62,4.94.62,5.77,0,1.13-.51,3.7-2.06,3.7-.52,0-.72-.92-.72-2.67,0-1,.1-3.92.1-5,0-1.65-.1-2.47-.62-2.47-1.64,0-1.13,5.36-2.78,5.36-.61,0-1-.31-1-1.24,0-1.65.21-3.3.21-3.6,0-.62-.41-1-1.65-2.58-1.75-2.27-2-3.5-2-5.15a40.64,40.64,0,0,0,1.14-8.24c0-4.32,1-7.21,1-8.65,0-2.06-2.17-2.37-2.17-5.46,0-3.3,2.58-6.28,2.58-10a78.62,78.62,0,0,0-.62-9.06c0-.73.52-3.71.52-4.74a8.38,8.38,0,0,0-1.55-3.71c-.93-1.34-1-1.13-1-2.47s1.55-4.43,1.55-5.87a32.39,32.39,0,0,1-.72-4.43,2.07,2.07,0,0,1,2.26-2.16c.83,0,3,.92,4.22.92,1,0,2.06-.72,3.09-.72,1.86,0,5.36,1.55,5.36,4.84,0,2.47-1.65,5-1.65,7.21,0,3,2.06,10.61,2.06,13.6,0,.82-.2,1.23-.51,1.23S92,29.25,91.72,29.25Z"/><path class="cls-3" d="M125.5,4.22c3.91,1.24,7.72,8.76,7.72,13.91,0,1.44-.61,4.84-.61,6.49,0,2.26.51,2.88.51,3.91s-.41,2-1.44,2c-.72,0-1.85-2.68-2.16-2.68s-1,.72-1.34.72c-.52,0-1.44-1.55-1.86-1.55-2.36,0-.1,5.57-2.47,5.57-1.65,0-.82-2.06-1.54-3.4-.83-1.55-2-1.86-2-5.46,0-.52.1-1.13.1-2.16,0-4.85-.2-8.14-1.44-8.14-.82,0-1.54,2-1.54,4.53,0,1.34.72,3.61.72,5.15,0,1.13-.31,2.06-1.34,2.06-1.55,0-1.75-3.91-1.75-4.74,0-1.13.2-2.47.2-3.5,0-1.23-.2-2.06-1.13-2.06a1.68,1.68,0,0,0-1.54,1.65c0,1.54,1.64,3.4,1.64,4.22,0,1-.61,1.86-1.34,1.86s-1-.42-1.75-.42-.72.93-.72,1.45c0,3.19,1,3,1,4.73C111.49,30.59,110,34,110,36c0,1,.41,2,2,4.12a6.25,6.25,0,0,1,1.14,3.7,35.39,35.39,0,0,0,.41,5.46A3.09,3.09,0,0,1,111.29,52c-1.24.41-1.45.93-1.45,1.45,0,.72,1.45,1.85,1.45,2.88a1.82,1.82,0,0,1-.62,1.24,6.81,6.81,0,0,0-.62,3.5c0,1.85,1,2.57,2.16,2.57.42,0,1.86-.41,2.48-.41s1.64.82,2.36.82c3.82-.2,4.64-9.16,4.64-12.87,0-1.44-.21-2.06-.21-3s.31-1.54.93-1.54c.93,0,1.85,1,2.57,1s1.34-.83,2.06-.83,1.45.62,2.37.62c.72,0,1.55-.82,2-.82,1.75.2,2.58,1.75,2.58,3.6,0,2.68-2.17,5.15-2.17,8.34,0,1,.21,2.27.21,3.92,0,3.19-1.86,5.25-6.39,9.47-.92.93-3.6,1.76-4.63,3.3-.52.41-.72,3.5-1.65,3.5s-2.37-4-3.5-4c-2.27,0-.41,5.14-3.09,5.14-1.44,0-.31-6.48-2.68-6.48-1.54,0-.21,3.39-1.65,3.39-1.13,0-1.13-4.32-2.57-4.84a4,4,0,0,1-1.55-.72c-1.44-1.23-1.85-5.56-2.47-5.56-.31,0-.21,1.13-.82,1.13s-.93-.82-.93-3c0-1.44.51-2,.51-3,0-1.24-.92-1-.92-2.06a21.67,21.67,0,0,1,.62-2.88c0-.72,0-1.24-.31-1.24s-.52.62-.93.62-.52-.31-.52-.72c0-2.37,1.24-3.71,1.24-9.17,0-7.21-.62-16.79-.62-26.67q0-11,5.87-13.6c6.49-2.78,7.83-4.74,9.17-4.74C116.13.41,122,2.78,125.5,4.22Z"/><path class="cls-3" d="M148,3.09c1,0,2.78-.82,3.71-.82a1.64,1.64,0,0,1,1.86,1.85c0,.51-.21,2.27-.21,2.57,0,4.23,1,4.54,1,7.11,0,1.65-2.47,1.75-2.47,3.19a17.53,17.53,0,0,0,.72,3.61c0,1-.52,3-.52,3.71a2.12,2.12,0,0,0,2,2.37c1.13,0,.62-3.92,3-9.38,2.26-5.15,1.65-5.46,3.71-7.72a20.72,20.72,0,0,0,3.5-4.74c.82-2.27,2.06-2.47,2.68-2.47s2.26.31,3.09.31c1.23,0,2.36-.93,3.5-.93a1.3,1.3,0,0,1,1.23,1.44c0,1.34-2.16,10.4-2.16,12.77,0,1.45.72,3.4.72,5.46,0,1.86-.51,2.27-1.24,2.27a1.47,1.47,0,0,1-1.33-1.55c0-1.95.2-3.6.2-4.32s-.1-1.75-.92-1.75c-1.14,0-2.06,2.37-2.06,3.91s.72,2.89.72,4.12c0,1-.31,1.65-1,1.65-.52,0-1.24-.41-1.65-.41-1.34,0-1.75,1.75-1.75,2.88s1,3.5,1,4.94c0,.93-.21,2.68-.21,3.71a10.77,10.77,0,0,0,1.24,4.84c2.78,6,1.34,5.46,4.12,14.11-.62-1.13,5.46,7.63,5.46,10.51a1.44,1.44,0,0,0-.11.72c0,.82.41,2,.52,3.61-.21,1.75-3.81,2.67-3.81,4.22,0,1,.92,3.19.92,4.12,0,.51-.61,4.22-1.64,4.22-1.34,0-1.65-2.57-1.65-4.12,0-.41.2-1.75.2-2.27a1.21,1.21,0,0,0-1.23-1.33c-.72,0-1.34,1.75-1.75,1.75-.93-.11-.83-2.37-1-2.78a25.08,25.08,0,0,1-2.78-3c-1-1.55-.93-4.74-1-5.87-.62-2.78-1.86-5.77-2.58-8.65-1.13-3.92-3.5-7.83-3.5-12.47,0-2.57-.52-2.88-.93-2.88-1.34,0-2.37.93-2.37,3,0,.92,1.55,3.19,1.55,4.22a10.63,10.63,0,0,1-.52,3.5,39.56,39.56,0,0,0-1.95,13.8c0,1.65,1.13,3.2,1.13,4.74,0,.93.1,1.65-2.58,3.61-1.54,1.13-1.75,2-1.75,2.78,0,.62.42,2.06.42,2.67,0,3.09-.73,4.33-1.65,4.33-1.65,0-1.55-8.86-2.58-8.86-1.23,0-.41,3.51-2.26,3.51-2-.52-2.78-11.33-2.78-13,0-1.86.51-3.09.51-4.33,0-2.26-2.57-3.6-2.57-4.84,0-3.09,2.67-2,2.67-10.5,0-2-.2-3.51-.2-4.23,0-2.57.82-3.19.82-9.58,0-2.26-1-5.15-1-7.93,0-2.47.72-4.84.72-6.69,0-2.78-.62-7.73-.62-11.13,0-3.7,1.14-4.22,3.61-4.22C145.28,2.47,146.72,3.09,148,3.09Z"/><path class="cls-3" d="M209.75,69c0,.51.21,1.75.21,3.29,0,1.24-.52,1.75-1.55,1.75-.72,0-3.91-1-5.15-1a2.12,2.12,0,0,0-2.16,2.17c.31,1.75,1.13,2.26,1.13,4.94,0,.83-.1,1.13-1,1.13-1.54.11-2.67-7.62-4.53-7.62-1.54,0-2.57,2-2.57,2.68s.61,1.44.61,2.16c0,2-.61,2.27-1.44,2.27-3.19,0-2.57-6.39-4.32-6.39-.31,0-1,1.55-2,1.55-.72,0-2.27-1.55-3-1.55-.41,0-1.23.62-1.64.62-1.86,0-1.24-3.71-1.45-4.53v-2c0-.51.11-1.85.11-2.57V63.65c0-3.29.72-10.71.72-13.9,0-2.47,1.34-6,1.34-6.49,0-.93-.42-1.44-1.55-1.44-.41,0-1,.3-1.44.3-.82,0-.93-1.13-.93-1.75a4.1,4.1,0,0,1,.41-1.95c1.24-2.17,1.45-5.26,1.45-7.52,0-3.5,1.34-6.08,1.34-8.65,0-.72-1-3.5-1-4.95,0-1,.2-2.68.2-3.6s-.51-2.58-.51-3.61c0-.51.31-1.34.31-1.85,0-.72-1-2-1-2.78,0-1.65,1.64-2.37,3.91-2.37.41,0,1.34.1,2.06.1,1.85,0,2.27-.92,3.81-.92.93,0,2,.92,2.68.92s1-.62,2.06-.62c1.44,0,3.29,1.65,4.84,1.65,1,0,2.06-1.13,3.5-1.13,1,0,1.44.51,2.16.51s1.14-.72,2.68-.72c.72,0,1.24,1.34,1.24,5.15,0,2.68,1.44,12.16,1.44,15.86,0,1.24-.62,2-2.06,2-.93,0-1.44-.51-1.44-1.54,0-.83.2-3.61.2-3.92,0-3.6-.31-6.69-.92-6.69-1.86,0-.11,6.8-2.17,6.8a1,1,0,0,1-1.13-.83,14.33,14.33,0,0,0-1-3.71c-1.34-.92-2.57-1.85-3.81-1.85-2.27,0-2.47,2.57-3.61,2.57-.61,0-.92-.2-1.33-.2-2.27,0-2.79,2.37-2.79,5.56,0,6.08,3.92,9.58,5.46,9.58.31,0,3.51-.72,3.92-.72a25.72,25.72,0,0,1,4.32-.31c1,0,1.75,1.13,1.75,2.57,0,.73-.92,2.58-.92,3.61,0,2.16,1.95,7.52,1.95,9.06,0,1.86-1.54,4.43-2.47,4.43-2.06,0-.51-5.66-3.09-5.66-2.16,0-.41,3.81-2.16,3.81-1.24,0-1.65-3.4-2.78-3.4-.72,0-1.44-.41-2.16-.41-.93,0-1.34.2-1.34,1a27.84,27.84,0,0,1,.72,6.59c0,1.54-1.44,4.32-1.44,5.46,0,1.65,1.44,3.81,5.87,3.81.61,0,1.44-.1,2.37-.1,1.44,0,4.12.82,5.45.82.42,0,.93-.1,1.45-.1a3.51,3.51,0,0,1,3.19,3.19C210.68,66.43,209.75,68.08,209.75,69Z"/><path class="cls-3" d="M250.23,55.21c0,2.26.93,3.39.93,4.53,0,2.06-2.27,2.16-2.27,3.5,0,2.57.62,1.85.62,4.33,0,.92-2.57,2.47-2.57,4.53,0,.61.1,1.23.1,2.47,0,1-.41,1.54-1.24,1.54-1.13,0-3.09-2.67-4-2.67-1.24,0-1.65,1.64-1.65,3.09,0,1,.2,1.85.2,2.47s-.2.82-.72.82c-1.34,0-2.37-5.87-4.94-5.87-1.65,0-1.75,1.34-2.78,1.34-1.65,0-2.58-2.88-8-2.88-2,0-2.47,2.37-2.47,3.09s1.55,2.88,1.55,4-.41,1.65-1.75,1.65a1.66,1.66,0,0,1-1.55-1.85c0-1.14.41-2.68.41-3.4,0-.31,0-2.27-1.23-2.27-.41,0-.62.52-1.34.52s-.83-.72-.83-1.24c0-1.23.83-1.85.83-3.91,0-5.67-.52-6.9-.52-8.55,0-2.37.62-5.15.62-6.18s-.2-1.34-1.34-3.5a3.06,3.06,0,0,1-.51-1.55c0-1.95,1.13-5.46,1.13-7.41,0-4.74,1.24-8.66,1.24-12.88a24.05,24.05,0,0,0-.83-3.91c0-3.5,1.44-6.39,1.44-6.9,0-2.37-3.6-3.2-3.6-5.67,0-3.81-.31-3.81-.31-5.46,0-2.16.72-3.81,3.4-3.81.41,0,2.06.21,2.37.21,1.44,0,3.71-.93,4.22-.93,1.13,0,2.78,1.44,3.92,1.55s3.08-1.14,4.11-1.14c2.17.11,3.4,1.24,5.67,1.45,5.66.41,10.09,6,11.74,14.72,0,.73.1,1.55.1,2.17,0,4.94-1.85,3.5-1.85,5,0,3.4,3,8.66,3,11.23,0,7.21-.62,11-.62,11.95C250.85,51,250.23,52.42,250.23,55.21ZM239.31,44.39c0-4.43.52-9.17.52-13.9,0-2-.41-3.3-2-3.3-1.75,0-1.54,3.81-3.09,3.81-.51,0-.82-.51-.82-1.65a52.64,52.64,0,0,1,.62-6.38c0-2,.1-3,.1-3.92,0-1.34-.1-2.16-1.55-2.16-.51,0-.72.31-.72,1.13,0,1,.62,3.09.62,3.92,0,.51-.21.72-.51.72-1.65,0-2.37-1.34-2.37-3.09,0-.72.51-2.47.51-3.19,0-1.24-.82-2.68-1.54-2.68s-.93,2.16-.93,2.78c0,.1.52,3,.52,3.5,0,1.34-.93,2.47-.93,4.53,0,3,2.16,5.77,2.16,8,0,4.63-1.54,5.35-1.54,10.3a12.54,12.54,0,0,0,.72,4.84c.51,1.23,1.54,2.37,1.54,3.91,0,.62-.2.93-.72.93-.1,0-1.23-.31-1.44-.31a1.26,1.26,0,0,0-1.24,1.34c0,1.23.93,7.83,3.71,7.83,1,0,2,.1,2.88.1,3.09,0,5.46-1.24,5.46-12.57V44.39Z"/></g><g class="cls-1"><g class="cls-1"><path class="cls-3" d="M54.38,115.46c0,3.6-3,9.58-3,23.48,0,5.15.51,6.08.51,8,0,3.81-1.75,8.65-1.75,12.56,0,2.78,1.44,5.87,1.44,7.11,0,1.85-.51,2.47-1.54,2.47s-1.34-.62-1.34-1.65.31-2.26.31-3.4C49,162,48.1,161,47,161c-1.65,0-2.06,1.14-2.06,3.2,0,1.85,1.75,3.81,1.75,5.25,0,2-1.65.72-2.27,7.31-.1,1.13-1.65,4.64-1.65,6.9,0,1.65,1.45,5.36,1.45,7.21,0,5-.31,6.9-2,6.9-1.24,0-2.47-1.23-2.47-3.5,0-1.85.72-5.15.72-7.52,0-1.85-.52-3.29-2.58-3.29-1.65,0-.51,5.25-3.09,5.25-1.54,0-2.26-3.09-2.26-6.49,0-2.58.31-5.46.31-6.59,0-3.92-.42-5.25-1.45-5.25-.51,0-1.64,1-2.16,1s-.82-.72-.82-2c0-3,.92-6,.92-9.37,0-1.65-.41-2.78-.41-7.63,0-3.19-.41-4.73-1.65-4.73-3,0-3.09,5.25-3.09,8.75,0,3.3.21,4.33.21,6.18,0,2.68-1.24,9-1.24,11.54,0,3.19,1.86,6.07,1.86,8,0,4.12-.72,5.56-2.68,5.56-1.34,0-2.37-3.71-3.91-3.71-1.14,0-1.65.52-1.65,1.55,0,1.34.93,3.71.93,5.77,0,1.64-.52,2.37-1.14,2.37-1.75,0-.41-10.41-3.71-10.51-.82,0-2.26,1.44-3.6,1.44-.82,0-1.34-.41-1.34-1.23,0-1.45,2.78-6.8,2.78-10,0-1.65-1.23-3.09-2.37-3.09-2.26,0-3.4,2.26-4.94,2.26A1.27,1.27,0,0,1,2,171.28c0-7.21,2.57-11.84,2.57-30.79,0-6.29-1.13-10.71-3.6-17C0,121.33,0,114.84,0,113.3c0-2.17,2.47-2.68,5.15-2.68,5.56,0,7.42,2.26,7.42,5.87,0,13.18-1,17.61-1,21.32,0,2.16,1.33,7.62,5,7.62,1,0,1.55-.93,1.55-3.5,0-.72-.21-1.44-.21-2.58,0-4.32,2.27-5.66,2.27-12.77,0-4-1.65-9.89-1.65-11.53,0-2.27,1-5,3.71-5,2.06,0,4.43,2,6.18,2,1.44,0,2.57-1,3.71-1,2,0,2.47.72,2.47,2.78,0,1.23-.83,3.5-.83,4.74,0,2.67,1,6.9,1,9.68,0,2.06-.31,3.7-.31,5.15,0,3.6.52,5.35,2.58,5.35,3.71,0,2.57-7.21,3.4-20.49.2-3.71.92-5.26,6-5.26,2.27,0,3.81-.51,5-.51C53.46,112.37,54.38,113.4,54.38,115.46Z"/><path class="cls-3" d="M87.44,179c0,.51.21,1.75.21,3.29,0,1.24-.51,1.75-1.54,1.75-.73,0-3.92-1-5.15-1a2.12,2.12,0,0,0-2.17,2.17c.31,1.75,1.14,2.26,1.14,4.94,0,.83-.11,1.13-1,1.13-1.55.11-2.68-7.62-4.54-7.62-1.54,0-2.57,2-2.57,2.68s.62,1.44.62,2.16c0,2-.62,2.27-1.44,2.27-3.2,0-2.58-6.39-4.33-6.39-.31,0-1,1.55-2,1.55-.72,0-2.26-1.55-3-1.55-.42,0-1.24.62-1.65.62-1.86,0-1.24-3.71-1.44-4.53v-2c0-.51.1-1.85.1-2.57v-2.27c0-3.29.72-10.71.72-13.9,0-2.47,1.34-6,1.34-6.49,0-.93-.41-1.44-1.55-1.44-.41,0-1,.3-1.44.3-.82,0-.93-1.13-.93-1.75a4,4,0,0,1,.42-2c1.23-2.17,1.44-5.26,1.44-7.52,0-3.5,1.34-6.08,1.34-8.65,0-.72-1-3.5-1-5,0-1,.2-2.68.2-3.6s-.51-2.58-.51-3.61c0-.51.31-1.34.31-1.85,0-.72-1-2-1-2.78,0-1.65,1.65-2.37,3.91-2.37.41,0,1.34.1,2.06.1,1.86,0,2.27-.92,3.81-.92.93,0,2,.92,2.68.92s1-.62,2.06-.62c1.44,0,3.3,1.65,4.84,1.65,1,0,2.06-1.13,3.5-1.13,1,0,1.44.51,2.17.51s1.13-.72,2.67-.72c.72,0,1.24,1.34,1.24,5.15,0,2.68,1.44,12.16,1.44,15.86,0,1.24-.62,2-2.06,2-.93,0-1.44-.51-1.44-1.54,0-.83.21-3.61.21-3.92,0-3.6-.31-6.69-.93-6.69-1.86,0-.1,6.8-2.16,6.8a1.05,1.05,0,0,1-1.14-.83,14.33,14.33,0,0,0-1-3.71c-1.34-.92-2.57-1.85-3.81-1.85-2.26,0-2.47,2.57-3.6,2.57-.62,0-.93-.2-1.34-.2-2.27,0-2.78,2.37-2.78,5.56,0,6.08,3.91,9.58,5.46,9.58.31,0,3.5-.72,3.91-.72a25.83,25.83,0,0,1,4.33-.31c1,0,1.75,1.13,1.75,2.57,0,.73-.93,2.58-.93,3.61,0,2.16,2,7.52,2,9.06,0,1.86-1.55,4.43-2.48,4.43-2.06,0-.51-5.66-3.08-5.66-2.17,0-.42,3.81-2.17,3.81-1.23,0-1.65-3.4-2.78-3.4-.72,0-1.44-.41-2.16-.41-.93,0-1.34.2-1.34,1a27.84,27.84,0,0,1,.72,6.59c0,1.54-1.44,4.32-1.44,5.46,0,1.65,1.44,3.81,5.87,3.81.62,0,1.44-.1,2.37-.1,1.44,0,4.12.82,5.46.82.41,0,.92-.1,1.44-.1a3.51,3.51,0,0,1,3.19,3.19C88.37,176.43,87.44,178.08,87.44,179Z"/></g><g class="cls-1"><path class="cls-3" d="M108.15,113.19c2.88,0,4.22-1.34,6-1.34s1.65,1,2.47,4.23l.93,3.4a32.26,32.26,0,0,1,.72,4c0,.93-.41,2.89-.41,4a43.7,43.7,0,0,0,.62,7.52c0,.41,3.29,10.71,3.29,17.3,0,5.77,2.27,7.73,2.27,11.95a31,31,0,0,0,1.44,8.65c2.06,7.62,2.37,8.76,2.37,11.74s-.93,4.23-2.58,4.23c-1.23,0-1.64-.62-1.64-1.76,0-.72.2-1.64.2-2.26,0-.93-.31-1.24-.92-1.24-1.76,0-.73,4.53-2.27,4.53s-1.34-4.63-2.47-4.63c-.41.1-.62.62-.62,1.85,0,.72.31,2.27.31,3.4,0,1.34-.62,2-1.24,2-2,0-1.85-5.46-2-9-.11-2.37-1.24-5.15-1.24-8.24,0-3.3-.52-5.77-2.06-5.77s-1.13,4.64-2.88,4.64c-1.34,0-3.2-3.71-4-3.71-.41,0-.72.51-.72,1.23,0,1.45.62,1.55.62,3,0,.82-2.06,1.34-2.06,2.68,0,.82.72,2.16.72,3.4,0,3.6-3.92.2-3.92,6.59,0,1.65,0,3.3-1.44,3.3-2.68,0-1-5.26-3.09-5.26-.82,0-1.85,2.58-2.68,2.58s-1.13-.41-1.13-1.24c0-1.85.72-2.47.72-7.41a42.81,42.81,0,0,1,.31-7.52l.93-4.54L95,156.14a9.94,9.94,0,0,0,.42-2.47c0-.62-.52-.82-.52-1.75a17.54,17.54,0,0,1,1-4.53c1.24-4.23.51-5.36,2.47-16,1.24-6.8.72-19.77,4.33-19.77C103.92,112,106.09,113.19,108.15,113.19Zm-3,38.11c0,1.44.62,2.06.72,2.78,0,.41-.72,1-.72,2.58,0,.82,1.13,1.23,3.19,1.23,2.37,0,3.09-.61,3.09-1.34s-.41-1.85-.41-3.29c0-6.9-.41-7.62-.82-7.62-1,0-.42,3.6-1.75,3.6s-.31-5.05-1.45-5.05S105.16,148.83,105.16,151.3Z"/></g><g class="cls-1"><path class="cls-3" d="M157.69,119.58c0,1.65-1.54,5.77-1.54,7.83a18.69,18.69,0,0,0,.41,3.39c0,1.24-.31,1.76-1.23,1.76-2.68,0-1.24-6.9-2.58-6.9-1.13,0-1.24,2.57-2.16,2.57-1.34,0-1.86-2.27-3.61-2.27-2.26,0-2.88,1.55-2.88,5.67,0,1,.41,2.57.41,3.29,0,3.09-.62,5.36-.62,7.11,0,5.25,2.06,6.39,2.06,13.49,0,5.26-1.85,7.83-1.85,11.95,0,3,.93,4.33.93,6.49,0,.72-.31,1.75-.31,2.37,0,1.13,1.23,3.29,1.23,4.53-.31,3-5.46,1.55-5.46,7.73,0,2.88,1.24,4.94,1.24,8.34,0,1.13-1,2.06-3,2.06-1.64,0-2.47-.62-2.47-2,0-1.85,1-3.5,1-5.25,0-3.5,0-8.55-1.85-8.55-.93,0-.83,1.75-1.86,1.75-1.54,0-2.37-7.11-2.37-9.37,0-6.28,2.68-15.14,2.68-17.51,0-4.64-.51-5.36-.51-6.9,0-2.27.72-9.79,1.23-14.32.42-3.6,1.34-8,1.34-9.89,0-2.06-2-2.06-2.88-2.06-2.89,0-2,6.8-4.74,6.8-2.37,0-1.44-6.8-4.84-6.8a2.37,2.37,0,0,1-2.47-2.06c0-.82,1.44-2.67,1.44-3.91s-.93-4-.93-4.84.52-1.24,1.34-1.24c1.75,0,3.3,1.55,5.15,1.55,3.92,0,6.08-2.16,8.65-2.16,4.64,0,5.57,1.33,10.51,1.33,3,0,4.94-1.44,6.39-1.44C156.46,112.16,157.69,117,157.69,119.58Z"/><path class="cls-3" d="M192.2,165.41c0,7.62,2.16,12.26,2.16,13.49,0,2.58-2.26,5.46-3.19,5.46-.41,0-1.55-.31-1.85-.31a1.24,1.24,0,0,0-1.45,1.24,18,18,0,0,0,.72,3.4,1.09,1.09,0,0,1-1.23,1.23c-.31,0-.52-.51-.52-1.64v-1.75c0-2.06-.51-2.89-1.44-2.89-1.13,0-2.37,1.65-3.5,1.65-.62,0-1-.72-1-2v-2.16c-.1-1.13-.82-7.21-.82-8.14,0-.51.2-2.06.2-2.36s-.1-.73-.1-1.45c0-2.06,2-5.56,2-7.93,0-1,.61-5.15.61-6.49s-.51-2.16-1.23-2.16-2.58,2.78-3.3,2.78c-.51,0-1.85-.51-2.16-.51a1.27,1.27,0,0,0-1,1.34,7.79,7.79,0,0,1,.41,2.67v1.34c0,.62-.31,1.55-.93,1.55s-1.54-2.58-2.57-2.58c-.31,0-.62.31-.62.83,0,.92,1,4,1,5.35,0,1.65-.62,4.84-.62,5.77,0,1.13.62,2.27.62,4,0,.41-.1.61-.1,1a14.38,14.38,0,0,0,1.13,4.84c0,1.13-1.13,2.88-1.85,2.88a6.14,6.14,0,0,0-.72-.1c-1.45,0-3.71.41-4.23,2.47,0,.82,1.24,2.16,1.24,2.88s-.41,1.14-1.24,1.14a1.57,1.57,0,0,1-1.44-1.55c.1-1.23.31-2.16.31-2.88,0-1.55-.51-2.27-1.44-2.27-1.13,0-3,2.27-3.5,2.27a.84.84,0,0,1-.83-.93c-.1-.1.83-3.09.83-4.32,0-1-.93-2.89-.93-3.61s1.54-3.19,1.54-4c0-3.4-3-1.23-3-5.76,0-1.34,1.75-4.43,1.75-6v-3.91c0-5.56,2.06-12,2.06-12.88,0-2.26-1.34-6.07-2-6.07-.41,0-.92.92-1.23.92-.52-.1-.73-.61-.73-1.54,0-2.27,2-9.79,2-14.22,0-2.67-.2-4.42-.2-6.17a5,5,0,0,1,4.84-5c.51,0,1.85.31,2.67.31.52,0,.93-.21,1.65-.21,2.47,0,2.68,3.81,2.68,6.28C171.6,126,174,127.3,174,130c0,1.85-2.47-.41-2.47,4.84,0,3.3,1,5.77,3.19,5.77.52,0,1.24-.31,1.85-.31a13.23,13.23,0,0,1,3.61.82c.51,0,.82-.41.93-1a31.74,31.74,0,0,1-.72-3.81V131c0-5.77-.11-7.21-.11-8,0-1.55.83-4.12.83-5,0-1.75-1.55-2.47-1.55-3.09,0-1.44,2.37-2.78,4.53-2.78a35.88,35.88,0,0,1,4.84.41c.42,0,2.17-.62,2.58-.62,2.57.52,2.88,4.33,2.88,9.27a23.05,23.05,0,0,1-.72,6.39l-.93,2.06a8.31,8.31,0,0,0-.41,2.88c0,3.61,1.65,9.07,1.65,10.1V144a37.37,37.37,0,0,0,.41,5c0,1.33-.72,3.5-.72,4.73s1.13,3.61,1.13,4.43c0,.1-.1.52-.2,1S192.2,162.32,192.2,165.41Z"/><path class="cls-3" d="M231.44,179c0,.51.21,1.75.21,3.29,0,1.24-.52,1.75-1.55,1.75-.72,0-3.91-1-5.15-1a2.12,2.12,0,0,0-2.16,2.17c.31,1.75,1.13,2.26,1.13,4.94,0,.83-.1,1.13-1,1.13-1.54.11-2.68-7.62-4.53-7.62-1.54,0-2.57,2-2.57,2.68s.61,1.44.61,2.16c0,2-.61,2.27-1.44,2.27-3.19,0-2.57-6.39-4.32-6.39-.31,0-1,1.55-2,1.55-.72,0-2.27-1.55-3-1.55-.41,0-1.23.62-1.65.62-1.85,0-1.23-3.71-1.44-4.53v-2c0-.51.11-1.85.11-2.57v-2.27c0-3.29.72-10.71.72-13.9,0-2.47,1.34-6,1.34-6.49,0-.93-.42-1.44-1.55-1.44-.41,0-1,.3-1.44.3-.82,0-.93-1.13-.93-1.75a4.1,4.1,0,0,1,.41-2c1.24-2.17,1.45-5.26,1.45-7.52,0-3.5,1.33-6.08,1.33-8.65,0-.72-1-3.5-1-5,0-1,.21-2.68.21-3.6s-.51-2.58-.51-3.61c0-.51.3-1.34.3-1.85,0-.72-1-2-1-2.78,0-1.65,1.65-2.37,3.92-2.37.41,0,1.34.1,2.06.1,1.85,0,2.26-.92,3.81-.92.93,0,2,.92,2.68.92s1-.62,2.06-.62c1.44,0,3.29,1.65,4.84,1.65,1,0,2.06-1.13,3.5-1.13,1,0,1.44.51,2.16.51s1.14-.72,2.68-.72c.72,0,1.24,1.34,1.24,5.15,0,2.68,1.44,12.16,1.44,15.86,0,1.24-.62,2-2.06,2-.93,0-1.44-.51-1.44-1.54,0-.83.2-3.61.2-3.92,0-3.6-.31-6.69-.92-6.69-1.86,0-.11,6.8-2.17,6.8a1,1,0,0,1-1.13-.83,14.8,14.8,0,0,0-1-3.71c-1.34-.92-2.57-1.85-3.81-1.85-2.27,0-2.47,2.57-3.61,2.57-.61,0-.92-.2-1.33-.2-2.27,0-2.79,2.37-2.79,5.56,0,6.08,3.92,9.58,5.46,9.58.31,0,3.51-.72,3.92-.72a25.72,25.72,0,0,1,4.32-.31c1,0,1.75,1.13,1.75,2.57,0,.73-.92,2.58-.92,3.61,0,2.16,1.95,7.52,1.95,9.06,0,1.86-1.54,4.43-2.47,4.43-2.06,0-.51-5.66-3.09-5.66-2.16,0-.41,3.81-2.16,3.81-1.24,0-1.65-3.4-2.78-3.4-.72,0-1.44-.41-2.16-.41-.93,0-1.34.2-1.34,1a27.84,27.84,0,0,1,.72,6.59c0,1.54-1.44,4.32-1.44,5.46,0,1.65,1.44,3.81,5.87,3.81.61,0,1.44-.1,2.37-.1,1.44,0,4.12.82,5.45.82.42,0,.93-.1,1.45-.1a3.51,3.51,0,0,1,3.19,3.19C232.37,176.43,231.44,178.08,231.44,179Z"/><path class="cls-3" d="M268,187.14a18.51,18.51,0,0,1,.41,3.09c0,3.4-.83,6.49-2,6.49-.72,0-.92-.62-.92-1.64,0-1.65.2-3.09.2-3.71,0-2.17-.51-7.11-1.54-7.11-1.75,0-1.75,1.55-2.78,1.55a.84.84,0,0,1-.93-.83,33.57,33.57,0,0,0,.62-4,12.68,12.68,0,0,0-1.24-5.25c-1.85-4-2.78-7.11-2.78-8.75,0-.93.2-1.55.2-2.37,0-2.37-2.05-4.22-2.05-5.87s.41-1.86.41-3.2c0-.72-.31-1.13-.93-1.13-1,0-2.16.41-2.16,2.78a16.75,16.75,0,0,0,.31,2.58.59.59,0,0,1-.62.62c-1.44-.11-.72-4.12-2.06-4.12-.41,0-.62.61-.62,1.85,0,.93.51,6.08.51,6.69,0,1.24-.72,6.7-.72,10.41,0,2.67,1.14,5.46,1.14,8.55,0,3.7-.11,4.84-1.14,4.84-2.26,0-1-4.23-2.78-4.23-1.23,0-2.57,1.65-2.57,3.09a40.73,40.73,0,0,0,.62,4.43c0,.62-.31,1-1.24,1s-1-1.13-1-2.06c0-.41.1-1.85.1-2.57,0-1.55.11-2.68-2.37-4.23-1.85-1.13-1.85-2.16-1.85-2.78S240,177,240,175.81c0-3.5-1.85-8.75-1.85-10.19,0-4.12,1.85-9.37,1.85-10.82,0-3-1.65-10-1.65-11.84,0-3.09,2.27-6.08,2.27-9.37,0-2.89-1.65-6.18-1.85-7.32-.11-1.44-1.34-4.32-1.34-5.56s.61-3.71.61-5.25c0-.41-.41-1.44-.41-2.16,0-1,1.14-1.65,2-1.65,1.13,0,3.91,1.54,4.84,1.54,1.13,0,3.19-.51,4.22-.51,2.37,0,5.87.51,8.24.51h-.1c13.29,2.37,14.21,7.62,14.63,10a43.41,43.41,0,0,1,.92,8.24c0,1.65-1.13,5-1.13,6.59,0,2.48-.62,6.91-.62,9.38a14.68,14.68,0,0,0,.31,2.37A2.17,2.17,0,0,1,269,152c-.93,0-2-2.16-2.89-2.16a.55.55,0,0,0-.51.51c0,1.45,1.54,2.79,1.54,4.23,0,.82-.51,1.54-.51,2.68a6.14,6.14,0,0,0,.62,2.57,35.7,35.7,0,0,1,1.75,4.22c.61,2.17.2,6.7.92,8.35s3.81,5.56,3.81,7.72C273.77,184.36,268,184.05,268,187.14Zm-9.38-54.89a24.73,24.73,0,0,1,.31-2.58c0-2.78-1.34-4.94-4.12-4.94-1.23,0-1.75,1.75-1.75,3.29,0,.42.1,1.45.1,1.76,0,.82-.2,1.13-.61,1.13-1.55,0-.93-3.61-2.37-3.61-.31,0-.52.41-.52,1.34s.72,7,.72,7.93c0,1.24-.51,2-.51,3.09a1.28,1.28,0,0,0,1.24,1.34c.82,0,1.23-.41,1.75-.41,1,0,1.85,3,3.5,3,1.85,0,3-2.89,3-6.7C259.35,133.48,258.63,133.17,258.63,132.25Z"/></g></g></g></g></g></g></g></g></svg>