<svg xmlns="http://www.w3.org/2000/svg" viewBox="0 0 483 483"><defs><style>.cls-1{fill:none;stroke:#f5f4ed;stroke-miterlimit:10;stroke-width:3px;}.cls-2{fill:#f2efdd;}</style></defs><g id="Layer_2" data-name="Layer 2"><g id="Layer_1-2" data-name="Layer 1"><circle class="cls-1" cx="241.5" cy="241.5" r="240"/><path class="cls-2" d="M209.32,3.22c1.39-.19,2.78-.36,4.18-.53C212.1,2.86,210.71,3,209.32,3.22Z"/><path class="cls-2" d="M221.12,1.91l3.48-.28Z"/><path class="cls-2" d="M203.6,4.07c1.51-.24,3-.47,4.53-.68C206.62,3.6,205.11,3.83,203.6,4.07Z"/><path class="cls-2" d="M227.27,1.46l3-.17Z"/><path class="cls-2" d="M198,477c111.53-20.67,196-118.44,196-236S309.53,25.71,198,5c1.64-.3,3.28-.59,4.93-.86C89,22.84,2,121.76,2,241S89,459.16,202.93,477.82C201.28,477.55,199.64,477.26,198,477Z"/><path class="cls-2" d="M233.75,1.16c.79,0,1.57-.07,2.36-.09C235.32,1.09,234.54,1.13,233.75,1.16Z"/><path class="cls-2" d="M215.15,2.5,219,2.1Z"/><path class="cls-2" d="M208.13,478.61c-1.51-.21-3-.44-4.53-.68C205.11,478.17,206.62,478.4,208.13,478.61Z"/><path class="cls-2" d="M236.11,480.93c-.79,0-1.57-.06-2.36-.09C234.54,480.87,235.32,480.91,236.11,480.93Z"/><path class="cls-2" d="M224.6,480.37l-3.48-.28Z"/><path class="cls-2" d="M230.3,480.71l-3-.17Z"/><path class="cls-2" d="M213.5,479.31c-1.4-.17-2.79-.34-4.18-.53C210.71,479,212.1,479.14,213.5,479.31Z"/><path class="cls-2" d="M219,479.9l-3.85-.4Z"/></g></g></svg>